<svg version="1.1" viewBox="0 0 1326 1599" xmlns="http://www.w3.org/2000/svg">
<path transform="translate(0)" d="m0 0h1326v1599h-1326v-1599z" fill="#FEFEFE"/>
<path transform="translate(1145,376)" d="m0 0c2.9113 2.6675 3.9257 4.1636 4.2773 8.1211-1.1164 10.894-1.1164 10.894-4.2773 15.879l-3 6h-2l-1 6h-2c-0.18176 0.56848-0.36352 1.137-0.55078 1.7227-1.892 5.8119-4.0892 11.367-6.6797 16.91-2.3665 5.0939-4.2497 9.9526-5.7695 15.367-1.5977 4.0298-3.2869 8.0181-5 12h-2l-0.25 2.3125c-0.8496 4.1772-2.2638 7.9363-3.7617 11.918-1.2672 3.5511-2.1562 7.0946-2.9883 10.77h-2c-0.12504 0.69609-0.25008 1.3922-0.37891 2.1094-0.67132 3.1244-1.5846 6.0973-2.5586 9.1406-1.1814 3.7592-2.2641 7.4421-3 11.312-0.75064 3.6924-2.0561 6.9231-3.5625 10.375-1.9823 4.5598-3.1558 8.7437-3.9688 13.629-0.58374 2.674-1.5104 4.985-2.5938 7.4961-1.7124 4.0229-2.3328 7.476-2.6797 11.805-0.56244 4.6529-2.6102 8.7817-4.6133 12.961-4.0953 8.5485-7.0181 17.094-9.6445 26.172-0.33516 1.115-0.67031 2.2301-1.0156 3.3789-1.4078 5.1788-2.4315 10.421-3.4844 15.682-0.90738 4.4341-1.9511 8.6731-3.5 12.939h-2c-0.25523 1.5759-0.25523 1.5759-0.51562 3.1836-1.1779 6.9386-2.321 13.273-5.5117 19.605-1.607 3.6529-2.3441 7.515-3.2461 11.391-0.9008 3.4966-2.1742 6.5677-3.7266 9.8203h-2c-1.4914 3.622-2.7874 7.2757-4 11h-2c-0.23783 0.961-0.23783 0.961-0.48047 1.9414-1.6154 5.9885-3.494 10.311-7.5195 15.059h-2l-1 5c-0.99 0.33-1.98 0.66-3 1-0.70935 1.3111-1.3684 2.6497-2 4-2.5492 3.4276-5.2848 6.7029-8 10-0.52078 0.64711-1.0416 1.2942-1.5781 1.9609-3.7327 4.5326-7.9305 8.2723-12.422 12.039-0.92168 0.79793-1.8434 1.5959-2.793 2.418-6.4047 5.4767-12.975 10.238-20.207 14.582-1.3769 0.85115-2.752 1.7051-4.125 2.5625-0.63035 0.39059-1.2607 0.78117-1.9102 1.1836-2.9183 1.8624-5.757 3.8401-8.5938 5.8242-3.003 1.8107-6.1387 3.0736-9.3711 4.4297-2.238 1.0861-4.4671 2.1907-6.6875 3.3125-0.60086 0.30196-1.2017 0.60393-1.8208 0.91504-2.9337 1.4749-5.861 2.9613-8.7847 4.4561-14.396 7.3164-14.396 7.3164-19.707 7.3164v2c-1.916 0.64772-3.8329 1.2931-5.75 1.9375-1.0673 0.35965-2.1347 0.7193-3.2344 1.0898-2.333 0.75248-4.6294 1.4224-7.0156 1.9727v2c-23.676 7.849-23.676 7.849-31 6-1.7578-1.1875-1.7578-1.1875-3-3-0.36328-2.6289-0.36328-2.6289-0.3125-5.5625 0.0038672-0.97066 0.0077344-1.9413 0.011719-2.9414 0.30078-2.4961 0.30078-2.4961 2.3008-4.4961 3.5122-1.0871 7.0573-1.9845 10.617-2.9023 3.2966-0.86354 3.2966-0.86354 5.3164-2.5703 3.1097-2.2985 6.5554-3.0226 10.254-4.0273 1.5238-0.42978 3.0472-0.86076 4.5703-1.293 0.72993-0.20544 1.4599-0.41089 2.2119-0.62256 3.7203-1.071 7.3719-2.3207 11.03-3.5845v-2c1.2375-0.39188 2.475-0.78375 3.75-1.1875 8.2497-2.7629 16.128-5.7752 23.25-10.812 1.6499-0.70711 3.3156-1.3794 5-2l2.125-1.125c1.875-0.875 1.875-0.875 4.875-0.875v-2c0.73605-0.39832 1.4721-0.79664 2.2305-1.207 0.97582-0.5298 1.9516-1.0596 2.957-1.6055 0.96293-0.52207 1.9259-1.0441 2.918-1.582 12.312-6.8287 23.236-15.027 33.582-24.543 0.62987-0.57299 1.2597-1.146 1.9087-1.7363 4.3792-4.0849 7.9494-8.4436 11.404-13.326 0.74766-1.0287 1.4953-2.0573 2.2656-3.1172 1.3339-1.8538 2.6672-3.7079 4-5.5625 1.7344-2.3203 1.7344-2.3203 3.7344-4.3203 0.65296-1.5465 1.3027-3.0944 1.9375-4.6484 2.3778-5.2627 5.2853-10.292 8.0625-15.352h2l0.6875-3.625c1.2165-5.5226 3.1428-10.743 5.0938-16.043 1.5947-4.3599 3.0918-8.7359 4.3438-13.207l0.875-3.125h2l-0.1875-3.6875c0-4.0159 0.96243-5.9337 3.1875-9.3125 2.3272-5.7523 3.7494-11.783 5.1562-17.812 0.67443-2.5479 1.4342-4.9864 2.2852-7.4766 1.5748-4.6419 2.803-9.3341 3.9961-14.086 1.8105-7.049 3.9347-13.834 6.5625-20.625 2.1734-6.0163 3.8118-12.068 5.2539-18.301 0.74609-2.6992 0.74609-2.6992 1.7461-4.5234 1.8589-4.0445 2.1393-8.5975 2.7676-12.977 0.11666-0.73605 0.23332-1.4721 0.35352-2.2305 0.14587-0.9987 0.14587-0.9987 0.29468-2.0176 0.72714-2.4285 2.065-3.9343 3.5842-5.9512 0.85571-2.1974 0.85571-2.1974 1.4297-4.5625 0.23525-0.87318 0.47051-1.7464 0.71289-2.646 0.2417-0.9212 0.4834-1.8424 0.73242-2.7915 2.1829-7.9691 4.7523-15.45 8.125-23 4.5313-10.577 4.5313-10.577 7.4375-21.676 1.0371-4.2854 2.7976-8.3235 4.4414-12.406 0.88969-2.3157 1.6-4.5 2.1211-6.918h2c0.17004-1.06 0.17004-1.06 0.34351-2.1414 0.7147-3.1121 1.814-5.7029 3.1604-8.5969 0.49307-1.0667 0.98613-2.1334 1.4941-3.2324 0.51627-1.1028 1.0325-2.2056 1.5645-3.3418 0.78021-1.6832 0.78021-1.6832 1.5762-3.4004 1.2823-2.7646 2.5696-5.5269 3.8613-8.2871h2v-3c-0.84434 0.45504-1.6887 0.91008-2.5586 1.3789-4.5633 2.1496-9.2229 3.2373-14.102 4.4609-3.5382 1.2291-5.4651 2.8134-8.3398 5.1602-3.2344 1.3789-3.2344 1.3789-6.75 2.5625-1.2401 0.4241-2.4802 0.8482-3.7578 1.2852-2.7033 0.89203-5.4093 1.7745-8.1172 2.6523-3.6714 1.2192-7.2773 2.5778-10.875 4-1.0209 0.40219-2.0419 0.80438-3.0938 1.2188-2.7278 1.0979-2.7278 1.0979-3.4062 4.2812-2.0039 1.0625-2.0039 1.0625-4.5625 2-0.89848 0.33773-1.797 0.67547-2.7227 1.0234-1.6952 0.60977-3.3905 1.2192-5.0859 1.8281-4.1752 1.467-4.1752 1.467-7.6289 4.1484-1.6513 0.70768-3.3039 1.4122-4.9644 2.0981-15.063 6.6733-29.522 16.545-43.036 25.902-0.80953 0.55816-1.6191 1.1163-2.4531 1.6914-2.5256 1.7557-5.0368 3.5308-7.5469 5.3086-1.1158 0.78137-2.2317 1.5626-3.3477 2.3438-6.6138 4.6518-12.996 9.457-19.207 14.645-2.104 1.7309-4.2382 3.3542-6.4453 4.9492-4.3813 3.2321-8.3233 6.9161-12.324 10.602-4.5285 4.1649-9.1343 8.2264-13.926 12.086-2.7564 2.2293-2.7564 2.2293-4.625 4.75-2.4463 3.0219-5.2046 5.334-8.1602 7.8438-1.8129 1.6435-3.3203 3.3069-4.8398 5.2188-0.70125 0.84562-1.4025 1.6912-2.125 2.5625h-2c-0.27586 0.58137-0.55172 1.1627-0.83594 1.7617-2.8012 5.3862-6.4569 9.7988-11.164 13.613-3.9417 3.2798-6.2032 6.8877-8.6992 11.328-2.1165 3.7372-4.3218 6.5871-7.8008 9.1094-2.8598 2.5023-3.9486 4.7391-5.4102 8.1875-1.0898 2-1.0898 2-2.8867 3.7812-2.9331 2.9539-5.1009 6.2555-7.3906 9.7188-0.45053 0.66387-0.90105 1.3277-1.3652 2.0117-0.4299 0.64582-0.8598 1.2916-1.3027 1.957-0.38825 0.58201-0.7765 1.164-1.1765 1.7637-1.042 1.9027-1.5325 3.65-1.968 5.7676h-2c-0.40412 1.0577-0.40412 1.0577-0.81641 2.1367-1.2326 2.9819-2.6438 5.8077-4.1211 8.6758-2.8898 5.7373-5.2471 11.306-7 17.5-0.82961 2.8792-1.7547 5.5802-2.8125 8.375-1.9657 5.3705-3.7373 10.791-5.4375 16.25-0.262 0.80977-0.524 1.6195-0.79395 2.4539-4.0196 13.14-3.293 27.241-3.5811 40.859-0.043288 1.9206-0.086906 3.8412-0.13086 5.7617-0.106 4.6627-0.20756 9.3254-0.30664 13.988h2c0.097969 1.1602 0.19594 2.3203 0.29688 3.5156 0.7865 8.4708 1.8139 16.195 4.8984 24.199 0.80469 2.2852 0.80469 2.2852 0.80469 5.2852h2c0.18176-0.58008 0.36352-1.1602 0.55078-1.7578 1.137-3.5333 2.2578-6.8673 3.9492-10.18 1.3044-2.6633 2.0897-4.9756 2.875-7.8125 1.2831-4.4909 3.1245-8.3436 5.3008-12.461 2.0951-4.4126 3.5269-9.041 5.0156-13.688 1.3653-3.2359 2.8137-4.707 5.3086-7.1016 0.95478-2.1614 0.95478-2.1614 1.5-4.4375 1.1948-3.9934 2.8902-6.3002 5.5-9.5625 0.50593-1.3371 0.95904-2.6947 1.375-4.0625 1.8492-6.0025 4.7208-11.386 7.625-16.938 0.60599-1.1911 1.2114-2.3826 1.8164-3.5742 3.861-7.5096 8.0957-14.586 12.946-21.503 2.8829-4.1361 2.8829-4.1361 4.2373-8.9226h2l0.5-2.875c1.3226-4.7692 4.4715-7.978 7.6055-11.699 1.6386-2.0981 2.6877-3.7847 3.6445-6.2383 1.3203-3.3669 2.9623-5.4146 5.25-8.1875 0.91881-1.6407 1.8371-3.2818 2.75-4.9258 4.4662-7.411 10.043-14.178 15.488-20.883 1.1699-1.4552 2.2938-2.9487 3.3672-4.4766 0.4602-0.5659 0.92039-1.1318 1.3945-1.7148h2c0.30938-0.63938 0.61875-1.2788 0.9375-1.9375 1.0625-2.0625 1.0625-2.0625 2.0625-3.0625 3.057-0.5095 5.1806-0.42938 7.9531 1.0234 2.872 2.1131 4.7216 3.7659 5.6641 7.2734 0.1354 2.4372 0.059217 4.3567-0.61719 6.7031-2.3125 1.625-2.3125 1.625-5 3-0.67267 1.5808-1.3353 3.167-1.9336 4.7773-3.1183 6.4992-8.2908 12.296-13.066 17.66-7.9449 9.0453-15.323 20.209-20.688 30.938-1.3125 2.625-1.3125 2.625-3.3125 5.0625-2.3463 3.0062-3.5233 6.0553-5 9.5625-1.7604 2.8056-3.5761 5.4619-5.625 8.0625-1.5749 2.2191-2.3743 4.408-3.375 6.9375-2.3375 4.9539-4.8594 9.7988-7.5625 14.562-2.1471 3.7878-3.8989 7.6579-5.543 11.688-0.89453 1.75-0.89453 1.75-2.8945 2.75-0.73598 1.9069-1.4643 3.8173-2.1406 5.7461-0.85128 2.2327-1.8633 4.2708-2.9844 6.3789-1.6904 3.2648-2.5059 6.1843-2.875 9.875h-2l-2 9h-2l-1.1875 3.75c-1.9513 5.8821-4.375 11.556-6.8125 17.25h-2c-0.11473 0.81984-0.22945 1.6397-0.34766 2.4844-0.749 4.0365-1.8612 7.8539-3.0898 11.766-0.21721 0.7193-0.43441 1.4386-0.6582 2.1797-1.6609 5.3269-1.6609 5.3269-3.9043 7.5703-0.90554 2.5367-1.7283 5.0481-2.5 7.625-0.31904 1.0306-0.31904 1.0306-0.64453 2.082-1.0773 3.5226-2.0654 7.0527-2.9492 10.629-0.90625 3.6641-0.90625 3.6641-1.9062 6.6641h-2l0.25 3.5625c0.045229 7.0558-2.2706 13.731-4.25 20.438h-2c-0.18176 1.0132-0.18176 1.0132-0.36719 2.0469-0.16758 0.89203-0.33516 1.7841-0.50781 2.7031-0.16242 0.88172-0.32484 1.7634-0.49219 2.6719-0.60523 2.4658-1.4808 4.3333-2.6328 6.5781-0.35892 1.3426-0.66985 2.6988-0.9375 4.0625-0.93506 4.5257-2.168 8.9285-3.4766 13.359-0.59428 2.6148-0.69165 4.9066-0.58594 7.5781 1.0557 0.16436 1.0557 0.16436 2.1328 0.33203 5.7893 0.92961 11.556 1.952 17.305 3.1055 1.6996 0.33838 1.6996 0.33838 3.4336 0.68359 4.7204 1.326 7.3958 2.7793 10.129 6.8789 0.26562 2.1641 0.26562 2.1641 0.25 4.625 0.0077344 1.195 0.0077344 1.195 0.015625 2.4141-0.22242 2.4793-0.646 4.5032-1.2695 6.8906-1.5058 6.4631-1.248 12.97-1.1836 19.57 6.4453e-4 1.2865 0.0012891 2.573 0.0019531 3.8984-0.52812 5.6738-0.52812 5.6738 1.1855 10.602 0.29912 2.0168 0.5639 4.0388 0.8125 6.0625 0.72373 4.9473 1.7086 8.7778 4.1836 13.098 1.0829 1.9846 1.7849 3.9487 2.5039 6.0898 1.2185 3.4345 2.8727 5.2102 5.5 7.75 0.75 2.75 0.75 2.75 1 5h2c0.027242 1.4166 0.046505 2.8333 0.0625 4.25 0.011602 0.78891 0.023203 1.5778 0.035156 2.3906-0.095683 2.3117-0.31702 4.1821-1.0977 6.3594-1.3308 0.92134-2.6721 1.8303-4.0547 2.6719-7.2999 4.9839-14.103 11.768-19.633 18.641-0.76312 0.88688-1.5262 1.7738-2.3125 2.6875h-2c-0.27328 0.59168-0.54656 1.1834-0.82812 1.793-1.1346 2.1367-2.3214 3.7168-3.9219 5.5195-0.78891 0.90105-0.78891 0.90105-1.5938 1.8203-1.1042 1.2448-2.2083 2.4896-3.3125 3.7344-0.78891 0.90105-0.78891 0.90105-1.5938 1.8203-0.47953 0.54012-0.95906 1.0802-1.4531 1.6367-1.392 1.7987-2.2839 3.6456-3.2969 5.6758-1.1439 1.1439-2.2911 2.2848-3.457 3.4062-9.8951 10.221-17.798 22.729-25.543 34.594-0.9668 1.4811-0.9668 1.4811-1.9531 2.9922-2.9529 4.5782-5.6543 9.1087-8.0469 14.008l-4 6 82 1v4c-3.2704 1.6352-6.8971 1.2452-10.496 1.3164-0.90417 0.020826-1.8083 0.041653-2.7399 0.06311-3.0671 0.067388-6.1342 0.12583-9.2015 0.18298-1.058 0.021179-2.116 0.042358-3.206 0.064178-33.78 0.66059-67.572 0.46386-101.36 0.37332v-3h-3v-3c7.59-0.33 15.18-0.66 23-1-2.4306-4.6808-2.4306-4.6808-4.6172-6.3359-2.2418-2.6977-2.1958-5.9138-2.5078-9.2891-0.080728-0.75346-0.16146-1.5069-0.24463-2.2832-0.45888-4.4972-0.73615-8.982-0.91821-13.498-0.39854-9.575-2.2548-18.352-4.7122-27.594-0.71665-2.7479-1.4242-5.498-2.125-8.25-0.16701-0.65235-0.33403-1.3047-0.5061-1.9768-1.5491-6.1986-2.545-12.442-3.3689-18.773h-2c-2.8803-6.3199-4.4542-12.16-5.4297-19.023-0.75135-3.9214-2.1525-7.3772-3.7656-11.016-0.80469-1.9609-0.80469-1.9609-0.80469-3.9609h-2c-2.531-7.6533-5.7277-17.341-2.0039-25.066 4.2523-5.3846 10.919-10.155 17.184-12.883 2.3225-1.3406 2.743-2.6337 3.8203-5.0508 0.92256-1.1545 1.8827-2.2799 2.875-3.375 2.6789-3.0439 4.9257-6.2122 7.125-9.625l1.5625-1.875c1.7621-2.6049 2.6836-5.2562 3.6914-8.2227 0.74609-1.9023 0.74609-1.9023 2.7461-4.9023h2c0.27153-1.479 0.54215-2.9582 0.8125-4.4375 0.27844-1.4831 0.27844-1.4831 0.5625-2.9961 0.46608-2.6596 0.87732-5.304 1.25-7.9766 0.17052-1.1371 0.17052-1.1371 0.34448-2.2971 0.22606-1.511 0.43499-3.0246 0.62549-4.5405 0.55933-3.5966 0.92983-5.3714 3.823-7.6897 7.3175-3.0111 13.734-2.455 21.297-0.57422 3.7312 0.83554 7.4818 1.1495 11.285 1.5117 0.13277-0.75926 0.26555-1.5185 0.40234-2.3008 0.1766-0.99387 0.3532-1.9877 0.53516-3.0117 0.17402-0.98613 0.34805-1.9723 0.52734-2.9883 0.53516-2.6992 0.53516-2.6992 1.5352-5.6992h2c0.12955-1.0944 0.12955-1.0944 0.26172-2.2109 1.0287-7.6447 2.7257-14.86 4.8855-22.255 1.4992-5.1414 2.7283-10.298 3.8528-15.534 2.6341-11.502 2.6341-11.502 4.625-15.688 1.7259-4.1577 2.893-7.7822 2.375-12.312-1.2502-2.2353-2.7438-4.1558-4.2969-6.1914-2.2672-3.7388-3.393-7.5574-4.5781-11.746-0.21479-0.75861-0.42958-1.5172-0.65088-2.2988-1.4741-5.3998-1.4741-5.3998-1.4741-7.7637h-2c-0.12117-0.89203-0.24234-1.7841-0.36719-2.7031-0.16758-1.1705-0.33516-2.3409-0.50781-3.5469-0.16242-1.1602-0.32484-2.3203-0.49219-3.5156-0.44198-3.1038-0.44198-3.1038-1.6552-5.1374-1.1464-2.4591-1.2373-4.1782-1.2523-6.8836-0.009532-0.94975-0.019064-1.8995-0.028885-2.878 9.1141e-4 -1.0259 0.0018228-2.0518 0.0027618-3.1088-0.0042851-1.0742-0.0085702-2.1483-0.012985-3.255-0.0057489-2.2848-0.0062394-4.5696-0.0019074-6.8543 0.0031055-3.417-0.0201-6.8331-0.045654-10.25-0.031992-10.764 0.26756-21.352 1.6934-32.031 0.11647-0.87949 0.23295-1.759 0.35295-2.6651 0.81152-5.4127 2.259-10.1 4.315-15.171 0.8948-3.0199 1.7666-6.036 2.5078-9.0977 1.7176-6.5117 4.5562-12.142 7.6587-18.077 1.8196-3.5493 3.2525-6.65 3.8335-10.638 0.79451-5.1104 3.9065-8.6193 7.0273-12.609 3.1736-4.1476 5.4434-8.4902 7.6602-13.203 3.1487-6.336 6.9942-11.79 11.312-17.375 0.84157-1.0986 1.6827-2.1976 2.5234-3.2969 1.7109-2.233 3.4291-4.4601 5.1523-6.6836 1.9125-2.4846 3.784-4.9905 5.6367-7.5195 2.3203-3.1198 4.9367-5.7492 7.6875-8.5 0.91219-1.196 1.8065-2.4058 2.6875-3.625 5.404-7.378 11.835-13.941 18.312-20.375 0.72188-0.76312 1.4438-1.5262 2.1875-2.3125 1.8125-1.6875 1.8125-1.6875 3.8125-1.6875 0.26168-0.59941 0.52336-1.1988 0.79297-1.8164 1.2792-2.3142 2.4695-3.4802 4.5195-5.1211 2.2797-1.8682 4.3038-3.6931 6.375-5.8125 2.3125-2.25 2.3125-2.25 4.5-3.3125 1.961-0.77928 1.961-0.77928 2.6367-2.7227 3.5166-6.6243 11.427-11.582 17.422-15.93 1.5867-1.1626 3.1124-2.4074 4.6289-3.6602 2.125-1.625 2.125-1.625 4.125-1.625l1-3c1.965-1.3844 3.9705-2.712 6-4 1.6752-1.3226 3.3411-2.6571 5-4 16.379-12.86 34.279-24.995 52.688-34.734 2.4827-1.308 2.4827-1.308 5.3125-3.3281 3.6095-2.3312 7.3643-3.9884 11.285-5.7305 5.4322-2.4152 10.578-5.1166 15.702-8.136 5.6157-3.2958 11.095-6.0239 17.294-8.075 3.0883-1.1315 5.9221-2.5498 8.8438-4.0586 4.2058-2.1681 8.2721-3.8448 12.789-5.2227 2.1953-0.75231 4.1559-1.7026 6.2109-2.7773 7.4137-3.8302 15.788-5.1134 23.875-6.9375v-2c20.094-7.1401 20.094-7.1401 28-5z" fill="#2B2B2B"/>
<path transform="translate(517,891)" d="m0 0c3.8772 2.4385 7.459 5.0978 11 8 0.6948 0.54527 1.3896 1.0905 2.1055 1.6523 6.0071 5.2386 8.3587 11.807 9.1177 19.655 0.63592 10.181 0.67242 20.456-4.2231 29.693l-2 1-1.5 3.25c-9.8089 20.347-29.291 36.207-47.5 48.75-0.81727 0.60328-1.6345 1.2066-2.4766 1.8281-7.374 5.4228-15.397 9.6774-23.428 14.032-1.824 0.99191-3.6403 1.9981-5.4551 3.0068-4.7943 2.662-9.5476 5.0956-14.641 7.1328 0.2611 6.6057 0.93107 10.75 5 16v2h2c1.0859 1.7305 1.0859 1.7305 2.375 4.1875 10.817 18.574 29.116 30.29 49.59 35.891 3.0352 0.92188 3.0352 0.92188 6.4492 2.4336 3.7021 1.5365 7.0828 2.3449 11.023 3.0508 0.68087 0.12294 1.3617 0.24589 2.0632 0.37256 6.3939 1.1202 12.82 1.9095 19.269 2.6353 3.2305 0.42969 3.2305 0.42969 6.2305 1.4297 3.8491 0.24156 7.7067 0.19001 11.562 0.1875 1.7186-1.2085e-4 1.7186-1.2085e-4 3.4719-2.4414e-4 23.624 1.3873 23.624 1.3873 44.966-4.1873 1.5827-0.27315 3.1751-0.49083 4.7695-0.68359 1.457-0.18466 1.457-0.18466 2.9434-0.37305 2.0544-0.25243 4.1091-0.50246 6.1641-0.75 1.4628-0.18659 1.4628-0.18659 2.9551-0.37695 0.89437-0.10885 1.7887-0.21769 2.7102-0.32983 2.4334-0.36513 2.4334-0.36513 4.3491-1.4543 2.9305-1.4346 5.8011-1.8199 9.0149-2.3643 1.3891-0.24123 2.7782-0.48261 4.1672-0.72412 1.0854-0.18523 1.0854-0.18523 2.1928-0.37421 11.429-1.9552 22.746-4.0537 33.945-7.0963 3.4347-0.92894 6.1964-1.4734 9.7891-1.4734-1.239-2.4779-2.5635-2.8044-4.9883-3.9492-3.5861-1.8731-6.9334-4.1363-10.328-6.332-2.5343-1.6231-5.0984-3.1785-7.6836-4.7188-4.7314-2.9081-9.3789-5.9192-14-9l-2.4375-1.375c-7.2657-4.6075-7.2657-4.6075-9.5625-7.625-0.56699-3.2191-0.012798-4.7484 1-8 1.625-2 1.625-2 4-3 5.632-0.49297 8.5685 0.46304 13.25 3.5625 0.5543 0.35917 1.1086 0.71833 1.6797 1.0884 1.6992 1.1032 3.3846 2.2255 5.0703 3.3491 1.9967 1.2968 3.9964 2.5889 6 3.875 0.84562 0.5543 1.6912 1.1086 2.5625 1.6797 2.4104 1.5166 2.4104 1.5166 5.1133 2.5 2.3242 0.94531 2.3242 0.94531 4.5117 3.1953 3.1269 3.0574 6.3145 4.9738 10.078 7.1562 21.912 12.772 21.912 12.772 26.734 17.594 0.64044 3.4465 0.6782 6.5572 0 10-1.5694 2.053-3.3224 3.3365-5.3867 4.8945-3.1872 2.5679-5.81 5.4512-8.5508 8.4805-7.8152 8.537-16.038 16.658-24.267 24.792-4.9988 4.9529-9.9178 9.9132-14.444 15.311-3.0421 3.4247-5.4911 4.4026-9.9763 5.0212-3.375-0.5-3.375-0.5-5.3125-2.625-1.2323-3.3344-1.4555-5.3359-1.0625-8.875 1.4682-2.2526 2.8232-4.0211 4.6133-5.9805 0.48939-0.55584 0.97877-1.1117 1.483-1.6844 6.0842-6.8173 12.587-13.236 19.091-19.648 1.2511-1.2411 2.5018-2.4826 3.752-3.7246 3.0148-2.9931 6.0358-5.9798 9.0605-8.9629h-9v2c-11.542 2.7896-23.011 5.2855-34.779 6.9011-6.2934 0.88989-12.419 2.1827-18.58 3.7417-6.0291 1.5211-11.853 2.505-18.079 2.4197-0.86496-0.0090234-1.7299-0.018047-2.6211-0.027344-0.64066-0.011602-1.2813-0.023203-1.9414-0.035156v2c-13.497 1.6657-26.839 2.4734-40.438 2.5-0.9633 0.0036758-1.9266 0.0073517-2.9191 0.011139-22.279 0.01352-52.127-0.50127-71.643-12.511-1.4297-0.48211-2.8684-0.93785-4.3125-1.375-4.7667-1.5069-8.5587-3.8603-12.688-6.625l-2.4375-1.375c-3.2455-2.0581-6.2052-4.4064-9.2148-6.793-2.8065-2.1901-5.6988-4.245-8.6211-6.2773-2.1468-1.9331-3.2834-4.0603-4.7266-6.5547-1.1669-1.4337-2.356-2.8495-3.5625-4.25-5.2738-6.4751-9.2773-13.667-13.381-20.913-0.91642-1.5943-1.8789-3.162-2.8491-4.7241-1.207-2.1133-1.207-2.1133-1.207-4.1133-2.6797 0.97041-5.3584 1.9435-8.0352 2.9219-1.775 0.64546-3.5528 1.2835-5.3359 1.9062-3.9902 1.4174-3.9902 1.4174-7.5469 3.6641-2.3053 1.6695-4.2208 2.3245-6.957 3.0703-3.752 1.0409-7.4321 2.2023-11.125 3.4375-1.9899 0.64243-3.9808 1.2816-5.9727 1.918-1.7048 0.54576-1.7048 0.54576-3.4441 1.1025-1.2031 0.38511-2.4062 0.77021-3.6458 1.167-8.7282 2.7964-17.441 5.6324-26.125 8.5625-6.1529 2.0746-12.32 4.0241-18.562 5.8125-11.824 3.3975-23.293 7.5247-34.582 12.414-2.6196 1.0049-5.1043 1.6215-7.8555 2.1484-1.2581 0.28875-2.5162 0.5775-3.8125 0.875l-1 3c-2.3264 1.0441-4.5275 1.8969-6.9375 2.6875-0.9697 0.33741-0.9697 0.33741-1.959 0.68164-4.7736 1.6309-4.7736 1.6309-7.1035 1.6309v2c-0.94875 0.39188-1.8975 0.78375-2.875 1.1875-8.222 3.5474-15.843 7.594-23.125 12.812-0.56993 0.40605-1.1399 0.81211-1.7271 1.2305-17.453 12.51-35.096 27.064-44.726 46.738-3.8032 7.7666-3.8032 7.7666-8.2344 9.3438-3.3125-0.3125-3.3125-0.3125-6.3125-2.3125-0.92328-4.6247-0.6554-8.8152 1.625-12.938l2.375-3.0625c0.91284-1.7202 1.8068-3.4506 2.6875-5.1875 9.6484-17.665 26.75-33.632 43.312-44.812 1.7919-1.2705 3.5836-2.5413 5.375-3.8125 1.5368-1.0695 3.0787-2.1318 4.625-3.1875 1.4019-0.96486 1.4019-0.96486 2.832-1.9492 3.4116-2.2085 6.8886-4.1561 10.48-6.0508 0.66371-0.35175 1.3274-0.70351 2.0112-1.0659 4.0753-2.1416 8.1705-4.1555 12.411-5.9536 1.6929-0.73263 3.3675-1.508 5.0312-2.3047 7.2947-3.4916 14.674-6.3954 22.279-9.1311 4.5316-1.6337 8.9764-3.3647 13.393-5.2947 4.8321-2.0738 9.6342-3.3864 14.773-4.4766 2.8508-0.68774 2.8508-0.68774 5.5-2.1758 4.371-2.1232 8.8569-3.2797 13.539-4.5352 6.351-1.7049 12.411-3.6494 18.49-6.1633 2.9096-1.1577 5.8562-1.9851 8.8848-2.7742 6.0398-1.6646 11.821-3.7224 17.659-5.9707 5.1728-1.983 10.375-3.6906 15.716-5.1543v-2c0.64066-0.18176 1.2813-0.36352 1.9414-0.55078 4.0986-1.1911 8.1-2.381 11.996-4.1367 3.0625-1.3125 3.0625-1.3125 6.0625-1.3125-0.32613-1.1524-0.65227-2.3048-0.98828-3.4922-1.4281-6.4409-1.2751-12.916-1.2175-19.474 0.018331-2.1611 0.020509-4.3218 0.020264-6.4829 0.02826-8.019 0.16495-15.698 2.5371-23.434 0.5001-1.6328 0.96789-3.2756 1.4219-4.9219 2.5438-8.8923 6.1718-16.923 10.227-25.195 0.524-1.1582 0.524-1.1582 1.0586-2.3398 3.5812-7.7832 8.8914-14.649 14.941-20.66l1.25-2.3125c2.6015-3.9952 6.0884-6.6793 9.75-9.6875 0.64711-0.56848 1.2942-1.137 1.9609-1.7227 15.513-13.046 38.95-21.843 58.039-11.277z" fill="#2B2B2B"/>
<path transform="translate(788,873)" d="m0 0c4.5754-0.19064 8.2586 0.20576 12.715 1.4336 2.6633 0.66014 5.3238 1.0832 8.0352 1.5039 4.1345 0.65882 8.1387 1.4982 12.188 2.5625 4.2952 1.1257 8.5494 1.9435 12.941 2.5938 1.1519 0.17209 2.3037 0.34418 3.4905 0.52148 1.3022 0.19046 1.3022 0.19046 2.6306 0.38477-0.010474 1.1238-0.020947 2.2476-0.031738 3.4055-0.03653 4.2176-0.059281 8.4351-0.078125 12.653-0.009983 1.8164-0.023574 3.6328-0.041016 5.4492-0.47145 17.821-0.47145 17.821 5.0845 34.469 1.1946 2.2667 2.0939 4.5663 3.0039 6.9609 1.6476 4.2667 3.6933 8.0782 6.1094 11.957 1.1347 2.5065 1.1241 4.3842 0.95312 7.1055-0.80438 0.26812-1.6088 0.53625-2.4375 0.8125-1.2684 0.58781-1.2684 0.58781-2.5625 1.1875l-1 3c-1.3828 1.3242-1.3828 1.3242-3.125 2.6875-4.1087 3.3959-7.4443 7.2491-10.875 11.312-3.8696 4.4924-7.8062 8.8062-12 13-3.2125 3.5161-5.8931 6.7157-8 11-1.3097 1.3565-2.648 2.6856-4 4-6.6579 7.3538-12.249 15.2-17.387 23.68-1.6133 2.3203-1.6133 2.3203-4.6133 4.3203 0.79043-8.248 2.3017-16.274 3.9309-24.393 1.1757-5.8842 2.2683-11.754 3.1589-17.689 0.18466-1.1299 0.36932-2.2597 0.55957-3.4238 0.35085-2.156 0.6683-4.3179 0.94727-6.4844 1.2218-7.1243 1.2218-7.1243 4.6675-9.7065 2.6616-1.3149 2.6616-1.3149 5.2566-2.3098 2.5621-1.0266 4.3925-2.1983 6.4792-3.9934 1.3674-3.3774 1.3101-7.1441 1.5625-10.75 0.12568-1.7557 0.12568-1.7557 0.25391-3.5469 0.060586-0.89203 0.12117-1.7841 0.18359-2.7031h-2l-0.59375-1.6094c-2.0816-4.9169-4.0791-7.6776-9.0625-9.7695-5.6961-1.5095-11.729-1.5069-17.281 0.56641-3.8692 2.2899-6.0628 4.8132-8.0625 8.8125-1.0564 10.109-1.0564 10.109 2.3125 19.312 2.5854 2.761 2.5854 2.761 5.6875 4.6875-1.2295 7.4784-2.8883 14.722-5 22h-2c-0.13592 0.99653-0.27183 1.9931-0.41187 3.0198-0.55902 3.9083-1.2617 7.7856-1.9983 11.664-0.19764 1.0506-0.19764 1.0506-0.39928 2.1223-0.41626 2.2108-0.83463 4.4212-1.2531 6.6316-0.28465 1.5097-0.56915 3.0195-0.85352 4.5293-0.69306 3.678-1.388 7.3557-2.084 11.033-0.99 0.33-1.98 0.66-3 1-0.075168-0.66532-0.15034-1.3306-0.22778-2.0161-0.3499-3.0378-0.71714-6.0732-1.0847-9.1089-0.11795-1.0467-0.2359-2.0934-0.35742-3.1719-0.69189-5.606-1.689-9.675-4.3301-14.703-0.96228-3.59-1.6568-7.2294-2.375-10.875-1.7359-8.407-3.8094-16.513-6.5-24.66-1.0385-3.1983-1.9194-6.395-2.75-9.6523-0.99074-3.7459-2.2991-6.5256-4.375-9.8125-2.3506-5.4023-4.1803-10.29-2-16 2.3226-2.2168 4.7648-4.1027 7.3516-6.0039 3.0624-2.3081 5.6422-4.8717 8.2734-7.6484 1.375-1.3477 1.375-1.3477 3.375-2.3477 2.9435-4.4853 5.4107-9.3023 8-14h2l0.6875-2.875c1.7157-6.0418 4.8603-11.556 7.9375-17 2.1354-4.8531 3.1983-9.9677 4.375-15.125z" fill="#F9F9F9"/>
<path transform="translate(510.31 905.69)" d="m0 0c1.9648 1.125 1.9648 1.125 3.6875 2.3125 0.57879 0.35062 1.1576 0.70125 1.7539 1.0625 4.754 3.2992 6.2442 7.4809 7.2461 12.938 0.98128 8.6619-0.31865 17.059-4 25l-3 1c-0.68814 1.6579-1.3509 3.3264-2 5-2.8071 3.8247-5.927 7.3869-9 11-0.58137 0.71801-1.1627 1.436-1.7617 2.1758-4.7625 5.7542-10.391 10.214-16.238 14.824-0.83918 0.69352-1.6784 1.387-2.543 2.1016-5.8648 4.8298-11.997 8.9129-18.457 12.898-1.9385 1.2484-3.876 2.4984-5.8125 3.75-3.6451 2.3215-7.2838 4.3869-11.188 6.25-1.1714 0.65826-2.3379 1.3255-3.5 2-4.3741 2.5202-8.5502 4.8659-13.5 6-1.0064-37.329-1.0064-37.329 5-52 0.67607-2.1846 1.3434-4.372 2-6.5625 1.7088-5.0171 3.9753-9.1115 7-13.438 0.46406-0.71672 0.92812-1.4334 1.4062-2.1719 7.5327-11.62 16.03-22.035 27.594-29.828l2.2812-1.7031c9.1938-6.0725 22.781-6.8384 33.031-2.6094z" fill="#FBFBFB"/>
<path transform="translate(763,1075)" d="m0 0c0.70125 0.48855 1.4025 0.97711 2.125 1.4805 3.2615 1.7238 5.2158 1.8927 8.875 1.832 1.0106-0.0038672 2.0212-0.0077344 3.0625-0.011719 2.9898-0.30613 5.221-1.0474 7.9375-2.3008v3h84v4c-3.2704 1.6352-6.8971 1.2452-10.496 1.3164-0.90417 0.020826-1.8083 0.041653-2.7399 0.06311-3.0671 0.067388-6.1342 0.12583-9.2015 0.18298-1.058 0.021179-2.116 0.042358-3.206 0.064178-33.78 0.66059-67.572 0.46386-101.36 0.37332v-3h-3v-3h25l-1-4z" fill="#353535"/>
<path transform="translate(892,643)" d="m0 0c1.1328 1.7305 1.1328 1.7305 2 4-0.75781 2.1133-0.75781 2.1133-2.125 4.3125-0.47695 0.79148-0.95391 1.583-1.4453 2.3984-0.4718 0.75539-0.94359 1.5108-1.4297 2.2891-3.2361 5.562-6.1639 11.223-9 17h-3l-0.25 3.375c-0.75 3.625-0.75 3.625-2.8125 5.0625l-1.9375 0.5625c0.98712-6.2858 4.079-11.416 7-17 0.32484-0.6289 0.64969-1.2578 0.98438-1.9058 7.187-13.908 7.187-13.908 12.016-20.094z" fill="#3C3C3C"/>
<path transform="translate(1013,429)" d="m0 0 2 1c-3.1455 3.3253-6.0838 5.6816-10 8-2.4847 1.8035-4.9476 3.6326-7.4023 5.4766-2.9066 1.7046-5.2701 2.165-8.5977 2.5234v3l-10 3c4.1619-4.5647 8.8113-7.6867 14-11 1.1621-0.75818 2.3235-1.5174 3.4844-2.2773 1.2341-0.80377 2.4685-1.6072 3.7031-2.4102 0.8729-0.57089 0.8729-0.57089 1.7634-1.1533 3.5763-2.3086 7.1383-4.467 11.049-6.1592z" fill="#383939"/>
<path transform="translate(1121,402)" d="m0 0c1.0652 3.6156 0.75606 4.683-1 8l-0.3125 2.5625c-0.84686 4.2343-2.5719 7.7119-4.4102 11.602-1.742 3.8675-3.0167 7.7885-4.2773 11.836h-4l-1 5c-1.4673-3.8149-0.43336-6.2901 1-10h2c0.11336-0.70665 0.22671-1.4133 0.34351-2.1414 0.7147-3.1121 1.814-5.7029 3.1604-8.5969 0.49307-1.0667 0.98613-2.1334 1.4941-3.2324 0.51627-1.1028 1.0325-2.2056 1.5645-3.3418 0.52014-1.1221 1.0403-2.2443 1.5762-3.4004 1.2823-2.7646 2.5696-5.5269 3.8613-8.2871z" fill="#4E4F4F"/>
<path transform="translate(870,972)" d="m0 0c0 7.1471-9.6268 13.75-14.438 18.625-0.62012 0.63325-1.2402 1.2665-1.8792 1.9189-4.2669 4.2741-8.7592 7.9616-13.683 11.456 2.6873-5.5995 6.576-9.6866 11-14 0.72188-0.76312 1.4438-1.5262 2.1875-2.3125 1.8125-1.6875 1.8125-1.6875 3.8125-1.6875 0.21398-0.55172 0.42797-1.1034 0.64844-1.6719 1.8051-3.1093 4.2996-5.2408 6.9766-7.5781l1.5625-1.3906c1.266-1.1253 2.5386-2.2431 3.8125-3.3594z" fill="#C3C3C3"/>
<path transform="translate(839,977)" d="m0 0 2 1c-1.2902 6.4511-5.4008 9.6944-10 14-0.86625 0.92812-1.7325 1.8562-2.625 2.8125-2.6038 2.3983-5.1498 3.7624-8.375 5.1875 1.5278-3.4375 3.5018-6.1895 6-9h2c0.35191-0.82758 0.35191-0.82758 0.71094-1.6719 1.6175-2.9214 3.6536-5.1239 5.9141-7.5781 0.81727-0.89203 1.6345-1.7841 2.4766-2.7031 0.62648-0.67547 1.253-1.3509 1.8984-2.0469z" fill="#232323"/>
<path transform="translate(858,872)" d="m0 0h2c0.055567 1.4787 0.093475 2.9581 0.125 4.4375 0.023203 0.82371 0.046406 1.6474 0.070312 2.4961-0.1639 2.5732-0.54645 4.5445-1.1914 7.0078-1.5174 6.4584-1.2558 12.961-1.1914 19.559 9.668e-4 1.9297 9.668e-4 1.9297 0.0019531 3.8984-0.52812 5.6738-0.52812 5.6738 1.1855 10.602 0.040638 1.6662 0.042721 3.3339 0 5-4.8841-4.8841-3.524-13.63-3.75-20.188-0.026013-0.72437-0.052026-1.4487-0.078827-2.1951-0.35162-10.527-0.13873-20.424 2.8288-30.617z" fill="#464647"/>
<path transform="translate(1016,688)" d="m0 0c1 2 1 2 0.40234 4.7383-1.6517 3.8418-3.9669 6.4939-6.8398 9.4492-0.49049 0.52014-0.98098 1.0403-1.4863 1.5762-1.347 1.4233-2.7109 2.8305-4.0762 4.2363-0.52723 0.63551-1.0545 1.271-1.5977 1.9258-0.69416 0.53174-0.69416 0.53174-1.4023 1.0742-2.1875-0.3125-2.1875-0.3125-4-1 0.67547-0.65227 1.3509-1.3045 2.0469-1.9766 4.5316-4.4399 8.6194-8.5906 11.953-14.023 1.6175-2.0466 3.3018-4.0188 5-6zm-17 23 2 1z" fill="#3E3E3E"/>
<path transform="translate(895,524)" d="m0 0c0.99 0.33 1.98 0.66 3 1-2.7665 2.9714-5.4968 4.9718-9 7-2.2119 1.8078-2.2119 1.8078-2.3125 4.3125-0.93804 3.6669-2.9169 5.1808-5.6875 7.6875l-1.5625 1.75c-1.7423 1.515-3.1863 1.8619-5.4375 2.25 0.125-1.6875 0.125-1.6875 1-4 1.4447-1.2248 2.8934-2.4508 4.4297-3.5586 1.7229-1.4362 1.7229-1.4362 2.9102-3.7695 2.033-3.2719 4.4638-5.4398 7.3477-7.9844 0.51111-0.45439 1.0222-0.90879 1.5488-1.377 1.2494-1.1093 2.5059-2.2108 3.7637-3.3105z" fill="#424242"/>
<path transform="translate(802,941)" d="m0 0v1c-2.9785 0.29297-2.9785 0.29297-5.957 0.58594-2.3429 0.34072-2.3429 0.34072-5.043 2.4141l-2.4375 1.375c-2.5746 1.6326-4.4918 3.4009-6.5625 5.625l-2-1-1 16h-1c-0.10884-2.3763-0.18767-4.7474-0.25-7.125-0.033516-0.66516-0.067031-1.3303-0.10156-2.0156-0.10096-5.149 1.1943-7.8681 4.3516-11.859 0.45375-0.5775 0.9075-1.155 1.375-1.75 5.458-4.1984 12.11-3.4587 18.625-3.25z" fill="#545555"/>
<path transform="translate(833,660)" d="m0 0h1c-0.14225 2.5211-0.2887 5.0418-0.4375 7.5625-0.039316 0.70447-0.078633 1.4089-0.11914 2.1348-0.041895 0.69932-0.083789 1.3986-0.12695 2.1191-0.036658 0.63365-0.073315 1.2673-0.11108 1.9202-0.16628 1.833-0.4223 3.6577-0.70532 5.4763-0.55556 4.2079-0.7248 8.3261-0.81641 12.564-0.020781 0.81135-0.041562 1.6227-0.062973 2.4586-0.064877 2.5671-0.12409 5.1343-0.18312 7.7015-0.043244 1.7507-0.08686 3.5013-0.13086 5.252-0.10651 4.2701-0.20795 8.5403-0.30664 12.811h-1c-0.024956-5.6193-0.04298-11.239-0.054932-16.858-0.0049894-1.9066-0.011783-3.8132-0.020508-5.7197-0.12496-28.035-0.12496-28.035 3.0754-37.422z" fill="#9D9D9D"/>
<path transform="translate(869,687)" d="m0 0 2 4c-1.2066 1.3303-1.2066 1.3303-2.4375 2.6875-2.3417 2.8126-2.9708 4.6779-3.5625 8.3125-1.7452 4.6293-3.3306 8.6031-7 12-1.018 1.3196-2.0225 2.6501-3 4 0.70741-5.6593 1.7838-11.853 6-15.938 2.6193-2.7011 3.208-5.3802 4.2734-8.9336 0.83485-2.4462 1.9858-4.2223 3.7266-6.1289z" fill="#2F2F2F"/>
<path transform="translate(1036,657)" d="m0 0c1 2 1 2 0.36328 3.918-1.0986 2.3728-2.2109 4.7349-3.3633 7.082-0.31324 0.65098-0.62648 1.302-0.94922 1.9727-2.3471 4.5061-5.0645 7.0376-9.0508 10.027 0.61571-4.7603 2.5714-8.46 4.8125-12.625 0.34354-0.66773 0.68707-1.3355 1.041-2.0234 1.9244-3.6105 3.5993-6.2312 7.1465-8.3516z" fill="#484848"/>
<path transform="translate(776,1011)" d="m0 0c1.0996 3.3572 0.88422 5.755 0.22266 9.2031-0.27554 1.4695-0.27554 1.4695-0.55664 2.9688-0.19916 1.0158-0.39832 2.0316-0.60352 3.0781-0.19529 1.0312-0.39059 2.0625-0.5918 3.125-0.48274 2.5432-0.97322 5.0847-1.4707 7.625-0.99 0.33-1.98 0.66-3 1l-2-18 2 1v6l2-1c0.61815-2.4462 0.61815-2.4462 1-5.3125 0.54218-3.6259 1.1773-6.4903 3-9.6875z" fill="#C2C1C1"/>
<path transform="translate(922,496)" d="m0 0 2 1c-2.8969 6.5179-8.1207 12.015-14 16h-4c1.338-3.0649 2.7091-4.8536 5.3125-6.9375 3.0774-2.5324 5.9066-5.2021 8.6875-8.0625l2-2z" fill="#4B4B4B"/>
<path transform="translate(813,697)" d="m0 0h1c1.1279 4.6822 1.3333 9.3341 1.5625 14.125 0.042458 0.84152 0.084917 1.683 0.12866 2.55 0.29195 6.111 0.43258 12.207 0.30884 18.325-3.1974-4.796-3.1256-9.6287-3.0977-15.273 0.0032227-1.1537 0.0064453-2.3074 0.0097656-3.4961 0.0083789-1.1898 0.016758-2.3796 0.025391-3.6055 0.0045117-1.213 0.0090234-2.426 0.013672-3.6758 0.011745-2.9831 0.02817-5.9661 0.048828-8.9492z" fill="#202020"/>
<path transform="translate(854,968)" d="m0 0c-4.1162 4.9194-8.4041 9.5265-13 14-0.85856-2.404-1.1404-3.6066-0.26953-6.0469 3.0591-4.7063 7.3262-9.0337 13.27-7.9531z" fill="#222323"/>
<path transform="translate(841,803)" d="m0 0c1.6764 4.0909 0.24093 7.7151-0.9375 11.75-0.19529 0.69738-0.39059 1.3948-0.5918 2.1133-0.48153 1.7147-0.97495 3.4261-1.4707 5.1367h-2c-0.12117 0.68707-0.24234 1.3741-0.36719 2.082-0.16758 0.90105-0.33516 1.8021-0.50781 2.7305-0.16242 0.89332-0.32484 1.7866-0.49219 2.707-0.63281 2.4805-0.63281 2.4805-2.6328 5.4805v-12h2c2.0731-3.1097 2.6725-5.268 3.5-8.875 0.89392-3.8769 1.9332-7.4646 3.5-11.125z" fill="#A0A0A0"/>
<path transform="translate(795,873)" d="m0 0c19.433-0.24258 19.433-0.24258 22.812 2.4375 0.39188 0.51562 0.78375 1.0312 1.1875 1.5625l2 2c-0.79922-0.13535-1.5984-0.2707-2.4219-0.41016-2.6754-0.44104-5.351-0.86368-8.0312-1.2734-1.599-0.25116-3.1979-0.50246-4.7969-0.75391-0.81469-0.12182-1.6294-0.24363-2.4688-0.36914-1.1679-0.18659-1.1679-0.18659-2.3594-0.37695-0.70544-0.10885-1.4109-0.21769-2.1377-0.32983-1.7842-0.48657-1.7842-0.48657-3.7842-2.4866z" fill="#4E4E4E"/>
<path transform="translate(491,903)" d="m0 0c19.775-1.2974 19.775-1.2974 25.75 3.5 1.9844 1.9688 1.9844 1.9688 3.25 3.5l-2 2c-1.6276-1.237-3.2552-2.474-4.8828-3.7109-4.9236-2.9978-9.8173-3.5928-15.492-3.9141-1.2452-0.074766-2.4905-0.14953-3.7734-0.22656-1.4115-0.073477-1.4115-0.073477-2.8516-0.14844v-1z" fill="#616161"/>
<path transform="translate(1085,496)" d="m0 0c1.2383 4.5173 1.7306 8.8645 0.1875 13.375-1.1875 1.625-1.1875 1.625-4.1875 2.625-1.027 2.3289-1.027 2.3289-1.6875 5.0625-0.25137 0.9191-0.50273 1.8382-0.76172 2.7852-0.18176 0.71027-0.36352 1.4205-0.55078 2.1523-1.4737-4.6318-0.44821-8.4606 1-13 0.97273-1.3534 1.9739-2.6866 3-4 1.1379-2.9585 2.0858-5.9657 3-9z" fill="#616162"/>
<path transform="translate(1078,576)" d="m0 0h1c0.49462 7.5429-1.0938 13.059-4 20h-2l-1 6c-0.625-1.75-0.625-1.75-1-4 0.66431-1.3345 1.3315-2.6676 2-4 0.54235-1.947 1.0393-3.907 1.5-5.875 0.99215-4.1197 2.0589-8.1343 3.5-12.125z" fill="#9D9D9E"/>
<path transform="translate(892,643)" d="m0 0c1.1289 1.7109 1.1289 1.7109 2 4-1.4228 4.5069-3.6667 8.2593-7.8125 10.562l-2.1875 0.4375c1.2903-6.1934 3.9964-10.153 8-15z" fill="#535353"/>
<path transform="translate(917,773)" d="m0 0 1 3c-17.225 7.4106-17.225 7.4106-24 7 1-2 1-2 3.625-2.9297 1.1138-0.31195 2.2275-0.62391 3.375-0.94531 5.5754-1.6351 10.778-3.5882 16-6.125z" fill="#1D1D1D"/>
<path transform="translate(1088,543)" d="m0 0h1c0.45953 8.5779-2.0388 14.455-6 22-1.2885-2.577-0.77759-3.5018-0.0625-6.25 0.88357-3.6707 1.2571-6.9547 1.0625-10.75h3l1-5z" fill="#818281"/>
<path transform="translate(473,911)" d="m0 0 2 1c-2.596 2.654-5.2031 5.2967-7.8125 7.9375-0.73799 0.75475-1.476 1.5095-2.2363 2.2871-0.71221 0.71865-1.4244 1.4373-2.1582 2.1777-0.6546 0.66508-1.3092 1.3302-1.9836 2.0154-1.8093 1.5823-1.8093 1.5823-4.8093 2.5823 3.1831-7.4668 10.763-13.042 17-18z" fill="#D4D4D5"/>
<path transform="translate(995,711)" d="m0 0 2 1-2 2-0.875 2.4375c-1.3436 3.0603-2.2086 3.9508-5.125 5.5625-2.6534 0.81331-5.2821 1.4111-8 2 3.6103-3.7231 7.4053-7.1549 11.328-10.547 0.91256-0.79316 1.8169-1.5982 2.6719-2.4531z" fill="#5F5F60"/>
<path transform="translate(940,570)" d="m0 0 2 1c-1.2514 4.4842-2.6839 7.6839-6 11-2.75 0.8125-2.75 0.8125-5 1 1.4908-3.2827 3.3862-5.9308 5.625-8.75 0.63164-0.79922 1.2633-1.5984 1.9141-2.4219 0.48211-0.60328 0.96422-1.2066 1.4609-1.8281z" fill="#393A3A"/>
<path transform="translate(794,1006)" d="m0 0c1.0144 3.1851 0.94768 5.3971 0.29297 8.6602-0.17467 0.87592-0.34934 1.7518-0.5293 2.6543-0.19014 0.90686-0.38027 1.8137-0.57617 2.748-0.17854 0.91072-0.35707 1.8214-0.54102 2.7598-1.3851 6.7857-1.3851 6.7857-3.6465 10.178 0.072188-1.1202 0.14438-2.2404 0.21875-3.3945 0.0938-1.4727 0.18755-2.9453 0.28125-4.418 0.047695-0.73799 0.095391-1.476 0.14453-2.2363 0.18937-2.9894 0.35547-5.9549 0.35547-8.9512h3l-1-7 2-1z" fill="#4E4E4E"/>
<path transform="translate(831,986)" d="m0 0c0.75 1.625 0.75 1.625 1 4-2.4923 4.885-4.9764 6.925-10 9l-2 1c1.5278-3.4375 3.5018-6.1895 6-9h2c0.30938-0.63938 0.61875-1.2788 0.9375-1.9375 1.0625-2.0625 1.0625-2.0625 2.0625-3.0625z" fill="#595959"/>
<path transform="translate(814,733)" d="m0 0h1l1 13h2c0.53394 1.4118 1.0517 2.8297 1.5625 4.25 0.29004 0.78891 0.58008 1.5778 0.87891 2.3906 0.60382 2.5504 0.40599 3.9126-0.44141 6.3594-5.3385-8.0078-6.3579-16.517-6-26z" fill="#9D9D9D"/>
<path transform="translate(823,637)" d="m0 0c1.1877 3.4294 0.80226 5.3778-0.4375 8.75-0.28746 0.79922-0.57492 1.5984-0.87109 2.4219-0.22816 0.60328-0.45633 1.2066-0.69141 1.8281h-2l-2 4c1.7872-12.213 1.7872-12.213 6-17z" fill="#4F4F4F"/>
<path transform="translate(933.25 750.38)" d="m0 0 1.75 0.625c-3.6217 3.9838-6.9226 5.2044-12.25 5.625-0.89203 0.074766-1.7841 0.14953-2.7031 0.22656-0.67547 0.048984-1.3509 0.097969-2.0469 0.14844v-2c0.60328-0.19336 1.2066-0.38672 1.8281-0.58594 0.79922-0.26039 1.5984-0.52078 2.4219-0.78906 0.78891-0.25523 1.5778-0.51047 2.3906-0.77344 2.37-0.7958 2.37-0.7958 4.5156-1.9766 1.8438-0.875 1.8438-0.875 4.0938-0.5z" fill="#505050"/>
<path transform="translate(1076,522)" d="m0 0c0.6875 1.5625 0.6875 1.5625 1 4-0.69206 1.6807-1.3942 3.359-2.1758 5-0.91351 2.2167-1.3716 4.3353-1.8242 6.6875-0.692 3.4365-1.5172 5.7168-4 8.3125 0.56891-8.6758 2.9898-16.285 7-24z" fill="#A1A1A1"/>
<path transform="translate(979,452)" d="m0 0 1 3c-4.7808 3.4149-9.008 6-15 6 10.5-9 10.5-9 14-9z" fill="#545454"/>
<path transform="translate(817,665)" d="m0 0c1.0562 3.1687 0.95421 4.4476 0.44141 7.668-0.13857 0.89268-0.27715 1.7854-0.41992 2.7051-0.15146 0.92877-0.30293 1.8575-0.45898 2.8145-0.1476 0.94037-0.2952 1.8807-0.44727 2.8496-0.3654 2.322-0.73738 4.6428-1.1152 6.9629h-1c-0.081449-2.7089-0.14071-5.4154-0.1875-8.125-0.025137-0.76055-0.050273-1.5211-0.076172-2.3047-0.064303-4.9727 0.60773-8.2065 3.2637-12.57z" fill="#201F1F"/>
<path transform="translate(885,558)" d="m0 0h1c0.56889 3.8684 0.016992 4.9761-2.3125 8.25-2.6875 2.75-2.6875 2.75-5.6875 3.75l-1-3 2-3h2l0.875-1.875c1.125-2.125 1.125-2.125 3.125-4.125z" fill="#434444"/>
<path transform="translate(713,1075)" d="m0 0c3 2 3 2 3.4688 4.207 0.083059 6.925 0.083059 6.925-1.5938 9.5625-1.375 1.3555-1.375 1.3555-3.875 3.2305-0.99-0.33-1.98-0.66-3-1 1.2806-1.7075 2.6177-3.3737 4-5h2c-0.072188-0.62648-0.14438-1.253-0.21875-1.8984-0.092812-0.81727-0.18562-1.6345-0.28125-2.4766-0.092812-0.81211-0.18562-1.6242-0.28125-2.4609-0.21875-2.1641-0.21875-2.1641-0.21875-4.1641z" fill="#4F5050"/>
<path transform="translate(832,772)" d="m0 0h1c0.32098 6.7407-0.52032 11.746-3 18l-1.1875 3.0625c-0.26812 0.63938-0.53625 1.2788-0.8125 1.9375h-1c-0.58235-5.3867 1.1413-9.4378 3.043-14.363 1.0379-2.8594 1.6301-5.6129 1.957-8.6367z" fill="#202020"/>
<path transform="translate(849,615)" d="m0 0c1.2513 3.5467 0.72285 5.7225-0.4375 9.25-0.28746 0.89203-0.57492 1.7841-0.87109 2.7031-0.22816 0.67547-0.45633 1.3509-0.69141 2.0469h-2l-0.375 1.8125c-0.625 2.1875-0.625 2.1875-2.625 5.1875-0.3355-4.8088 0.42835-6.9997 3-11 0.84772-2.0576 1.606-4.1339 2.3516-6.2305 0.64844-1.7695 0.64844-1.7695 1.6484-3.7695z" fill="#B1B1B1"/>
<path transform="translate(1124,439)" d="m0 0h1c0.3355 4.8088-0.42835 6.9997-3 11-1.095 2.6388-2.0415 5.3069-3 8-0.5625-1.9375-0.5625-1.9375-1-4l1-1c-0.032228-2.0304-0.068116-4.0613-0.16016-6.0898 0.16016-1.9102 0.16016-1.9102 2.1602-3.9102l1.5625-2.125c0.47438-0.61875 0.94875-1.2375 1.4375-1.875z" fill="#7C7B7C"/>
<path transform="translate(1028,439)" d="m0 0c-1.4724 3.7968-3.4193 5.2462-6.875 7.3125-1.2955 0.79857-1.2955 0.79857-2.6172 1.6133-2.7602 1.1823-3.7692 1.1633-6.5078 0.074219 2.2882-1.5055 4.5802-3.0046 6.875-4.5 0.65098-0.42926 1.302-0.85852 1.9727-1.3008 4.9258-3.1992 4.9258-3.1992 7.1523-3.1992z" fill="#232323"/>
<path transform="translate(875,773)" d="m0 0h2l-1 3c-0.067409 1.5612-0.085145 3.125-0.0625 4.6875l0.0625 4.3125c2.97 0.33 5.94 0.66 9 1v1c-1.4366 0.081315-2.8744 0.13934-4.3125 0.1875-1.2008 0.052207-1.2008 0.052207-2.4258 0.10547-2.2617-0.29297-2.2617-0.29297-4.0352-1.5195-1.5587-2.2536-1.5973-3.6154-1.5391-6.3359 0.0038672-0.78504 0.0077344-1.5701 0.011719-2.3789 0.30078-2.0586 0.30078-2.0586 2.3008-4.0586z" fill="#202021"/>
<path transform="translate(1060,572)" d="m0 0c2.6208 7.4375-2.1882 17.037-5 24-1.6855-4.1225-0.28359-7.898 0.8125-12 0.2678-1.0673 0.2678-1.0673 0.54102-2.1562 0.8999-3.4826 1.8465-6.7162 3.6465-9.8438z" fill="#989899"/>
<path transform="translate(1053,596)" d="m0 0h1c-0.43301 6.8199-1.9079 11.916-5 18-1.7876-5.3629 0.34551-10.565 2.625-15.562 0.45375-0.80438 0.9075-1.6088 1.375-2.4375z" fill="#A3A3A3"/>
<path transform="translate(511,956)" d="m0 0c0.66797 1.7695 0.66797 1.7695 1 4-1.0742 1.8867-1.0742 1.8867-2.6875 3.6875-0.51949 0.60199-1.039 1.204-1.5742 1.8242-1.9184 1.6425-3.272 2.0853-5.7383 2.4883 1.4442-3.2386 3.2577-5.6197 5.625-8.25 0.63164-0.70641 1.2633-1.4128 1.9141-2.1406 0.48211-0.53109 0.96422-1.0622 1.4609-1.6094z" fill="#484848"/>
<path transform="translate(780,951)" d="m0 0h2v16h-3c-0.027014-2.1041-0.046402-4.2083-0.0625-6.3125-0.011602-1.1718-0.023203-2.3435-0.035156-3.5508 0.097656-3.1367 0.097656-3.1367 1.0977-6.1367z" fill="#1F1F1F"/>
<path transform="translate(459,902)" d="m0 0 2 1c-3.8669 5.495-7.8105 9.2651-14 12 1.4335-3.3896 3.1878-5.2781 6-7.625 2.0766-1.7483 4.0796-3.4546 6-5.375z" fill="#4E4E4E"/>
<path transform="translate(830,616)" d="m0 0c0.9711 3.0212 1.1362 5.0046 0 8l-2 1c-0.19432 2.0403-0.38857 4.0807-0.58203 6.1211-0.41797 1.8789-0.41797 1.8789-2.4805 3.3789l-1.9375 0.5c0.61805-3.5618 1.5682-6.7193 2.9375-10.062 0.33902-0.8366 0.67805-1.6732 1.0273-2.5352 0.939-2.1792 1.949-4.2934 3.0352-6.4023z" fill="#4D4D4D"/>
<path transform="translate(1068,547)" d="m0 0c1.221 3.4965 0.76885 5.5247-0.43359 8.9844-0.31904 0.93457-0.63809 1.8691-0.9668 2.832-0.34225 0.96809-0.68449 1.9362-1.0371 2.9336-0.33838 0.98355-0.67676 1.9671-1.0254 2.9805-0.83635 2.4266-1.6823 4.8494-2.5371 7.2695-1.9487-7.1199 1.0346-13.605 4.0977-20.055 1.0111-2.0844 1.0111-2.0844 1.9023-4.9453z" fill="#A2A2A2"/>
<path transform="translate(756,1058)" d="m0 0h1l1 13c0.99-0.33 1.98-0.66 3-1l3 9c-1.3574-1.3089-2.6851-2.6485-4-4l-2.25-2c-2.7661-4.7418-2.0579-9.6368-1.75-15z" fill="#5C5C5D"/>
<path transform="translate(757,1054)" d="m0 0c3.5176 3.5176 3.055 8.1284 3.0625 12.875-0.015884 1.3751-0.035002 2.7501-0.0625 4.125h-2c-0.90414-3.8372-1.1058-7.375-1.0625-11.312 0.0090234-1.0686 0.018047-2.1373 0.027344-3.2383 0.011602-0.80824 0.023203-1.6165 0.035156-2.4492z" fill="#212021"/>
<path transform="translate(906,619)" d="m0 0c1.4707 2.9415 0.75527 4.853 0 8-1.375 2.375-1.375 2.375-3 4h-3c1.1818-5.0227 2.4499-8.0949 6-12z" fill="#353636"/>
<path transform="translate(994,440)" d="m0 0 2 1c-2.3629 2.5259-3.6646 3.8882-7 5v3l-10 3c3.6415-3.9939 7.5646-6.8461 12.109-9.7656 1.8219-1.0971 1.8219-1.0971 2.8906-2.2344z" fill="#646465"/>
<path transform="translate(648,1133)" d="m0 0 2 1c0.41406 2.0664 0.41406 2.0664 0.625 4.5625 0.074766 0.82629 0.14953 1.6526 0.22656 2.5039 0.073477 0.95713 0.073477 0.95713 0.14844 1.9336 2.97 0.495 2.97 0.495 6 1v1c-3.3125 0.3125-3.3125 0.3125-7 0-2.5259-2.7704-2.9632-4.5221-3.25-8.25 0.25-2.75 0.25-2.75 1.25-3.75z" fill="#434343"/>
<path transform="translate(613,1092)" d="m0 0v3c-4.4091 1.1023-8.4838 1.0765-13 1 2-3 2-3 5.375-3.6875 3.625-0.3125 3.625-0.3125 7.625-0.3125z" fill="#424242"/>
<path transform="translate(859,925)" d="m0 0c2.5084 2.5084 2.918 4.6267 4 8l1.5 3.3125c1.6993 4.1774 2.6492 8.2735 3.5 12.688-2-1-2-1-2.7461-3.1094-0.22816-0.87141-0.45633-1.7428-0.69141-2.6406-0.83764-3.0019-1.5384-5.2111-3.1875-7.875-1.9734-3.4086-2.0438-6.4666-2.375-10.375z" fill="#A9A9A9"/>
<path transform="translate(730,928)" d="m0 0c1.5591 3.1183 0.66585 5.6707 0 9l-2 1c-0.40729 2.3216-0.74439 4.6569-1 7h-1c-0.6302-10.976-0.6302-10.976 2-15.25l2-1.75z" fill="#5F5F5F"/>
<path transform="translate(816,832)" d="m0 0h1c0.63193 6.0033-1.6246 10.634-4 16h-1c1.1068-13.107 1.1068-13.107 4-16z" fill="#242424"/>
<path transform="translate(1147,390)" d="m0 0c0.6875 1.625 0.6875 1.625 1 4-1.25 2.875-1.25 2.875-3 6l-3 6h-2c0.48828-6.0547 0.48828-6.0547 1-8l3-2c1.0625-1.9675 2.0714-3.9659 3-6z" fill="#999A9A"/>
<path transform="translate(794,957)" d="m0 0h5c0.38219 1.6561 0.71395 3.3246 1 5-1 1-1 1-3.5625 1.0625l-2.4375-0.0625v-6z" fill="#C2C3C3"/>
<path transform="translate(955,571)" d="m0 0h1c0.63011 8.0338 0.63011 8.0338-1.875 11.875l-2.125 2.125-2 3c-0.99-0.33-1.98-0.66-3-1 0.49371-0.56848 0.98742-1.137 1.4961-1.7227 3.9775-4.7938 6.3699-7.9782 6.5039-14.277z" fill="#212122"/>
<path transform="translate(936,483)" d="m0 0 2 1c-0.64969 0.59748-0.64969 0.59748-1.3125 1.207-0.55688 0.5298-1.1138 1.0596-1.6875 1.6055-0.55688 0.52207-1.1138 1.0441-1.6875 1.582-1.629 1.647-1.629 1.647-1.3125 4.6055l-2.875 0.9375c-2.9858 0.93645-2.9858 0.93645-5.125 2.0625 1.55-3.884 4.0048-6.0298 7.125-8.75 0.91008-0.79922 1.8202-1.5984 2.7578-2.4219 1.048-0.90492 1.048-0.90492 2.1172-1.8281z" fill="#666766"/>
<path transform="translate(965,462)" d="m0 0v2l-2.3125 1.3125c-2.8482 1.5038-2.8482 1.5038-4.25 4.3125-1.4375 2.375-1.4375 2.375-3.5 3.3125l-1.9375 0.0625-2-2c2.6667-2 5.3333-4 8-6 1.0596-0.84111 1.0596-0.84111 2.1406-1.6992 1.8594-1.3008 1.8594-1.3008 3.8594-1.3008z" fill="#5B5B5B"/>
<path transform="translate(783,890)" d="m0 0c1 2 1 2-0.1875 5.75-1.5028 3.8126-3.4121 6.9391-5.8125 10.25l-1-2c0.92578-2.4961 0.92578-2.4961 2.3125-5.4375 0.44988-0.96809 0.89977-1.9362 1.3633-2.9336 1.3242-2.6289 1.3242-2.6289 3.3242-5.6289z" fill="#A9A9A9"/>
<path transform="translate(219,1104)" d="m0 0 2 1c-1.0751 1.2985-2.1604 2.5886-3.25 3.875-0.60328 0.7193-1.2066 1.4386-1.8281 2.1797-1.9258 1.9493-3.375 2.9775-5.9219 3.9453h-3l12-11z" fill="#535353"/>
<path transform="translate(849,968)" d="m0 0c0.60156 1.8633 0.60156 1.8633 1 4-2.0523 2.7627-3.4153 3.8405-6.75 4.75l-2.25 0.25c1.099-3.297 1.946-4.0467 4.5625-6.1875 0.64066-0.5298 1.2813-1.0596 1.9414-1.6055 0.74057-0.59748 0.74057-0.59748 1.4961-1.207z" fill="#4B4B4C"/>
<path transform="translate(744,939)" d="m0 0 2 1c0.37891 1.8906 0.37891 1.8906 0.5625 4.25 0.29589 3.3129 0.70351 6.4995 1.4375 9.75h-3c-1.0355-4.5857-1.7863-9.2995-2-14l1-1z" fill="#747474"/>
<path transform="translate(840,921)" d="m0 0c0.99 0.33 1.98 0.66 3 1 0.92844 4.3327 0.92844 7.6673 0 12-2.2656-2.2656-2.9446-3.8416-3.0977-7.043 0.032552-1.9857 0.065104-3.9714 0.097656-5.957z" fill="#4D4E4D"/>
<path transform="translate(524,898)" d="m0 0c5.0546 0.84802 7.8921 4.1151 11 8 0.9375 2.9375 0.9375 2.9375 1 5-2-1-2-1-3.1875-3.25-2.0829-3.1602-4.2355-4.6338-7.3867-6.6367-0.47051-0.36738-0.94102-0.73477-1.4258-1.1133v-2z" fill="#505050"/>
<path transform="translate(839,598)" d="m0 0c1 3 1 3 1 6l-1.8125 0.5625c-3.2873 2.1602-3.836 4.7886-5.1875 8.4375-0.75-1.5625-0.75-1.5625-1-4 1.9911-3.9822 4.2159-7.5198 7-11z" fill="#696969"/>
<path transform="translate(819 1e3)" d="m0 0v6c-0.80438 0.22688-1.6088 0.45375-2.4375 0.6875l-2.5625 1.3125c-0.89386 2.5478-0.89386 2.5478-1 5h-3c1.2498-3.6532 1.671-4.7807 5-7 1.0409-1.6414 2.045-3.3071 3-5l1-1z" fill="#5F5E5F"/>
<path transform="translate(872,956)" d="m0 0 1 2h2c0.027242 1.4166 0.046505 2.8333 0.0625 4.25 0.011602 0.78891 0.023203 1.5778 0.035156 2.3906-0.096119 2.3222-0.25753 4.1894-1.0977 6.3594-0.99 0.33-1.98 0.66-3 1l1-3c0.069371-2.2282 0.084571-4.4583 0.0625-6.6875-0.0090234-1.1795-0.018047-2.359-0.027344-3.5742-0.011602-0.90363-0.023203-1.8073-0.035156-2.7383z" fill="#8F8F8F"/>
<path transform="translate(1049,617)" d="m0 0h1c0.6151 6.3561-2.1122 12.463-5 18-1.5376-3.0752-0.36599-5.3468 0.4375-8.625 0.28746-1.1885 0.57492-2.377 0.87109-3.6016 0.22816-0.91523 0.45633-1.8305 0.69141-2.7734h2v-3z" fill="#1F1E1F"/>
<path transform="translate(1070,602)" d="m0 0c1.6313 4.0629 0.29969 7.201-0.9375 11.25-0.38027 1.2633-0.76055 2.5266-1.1523 3.8281-0.30035 0.96422-0.6007 1.9284-0.91016 2.9219-1.072-3.6844-0.70807-6.2236 0-10v-4l2-1 1-3z" fill="#676868"/>
<path transform="translate(764,1009)" d="m0 0c3.6724 5.5086 4.2128 7.5082 4 14l-1-3c-0.99-0.33-1.98-0.66-3-1v-10z" fill="#515151"/>
<path transform="translate(788,977)" d="m0 0h1c-0.36504 5.6644-1.0554 10.007-4 15h-1c0.49658-5.661 1.5451-9.8767 4-15z" fill="#242324"/>
<path transform="translate(878,667)" d="m0 0c0.58594 1.8477 0.58594 1.8477 1 4-0.95496 1.6929-1.9591 3.3586-3 5-0.70671 2.6925-0.70671 2.6925-1 5-0.99 0.33-1.98 0.66-3 1 0.60355-3.8503 1.7677-6.861 3.5625-10.312 0.45504-0.88301 0.91008-1.766 1.3789-2.6758 0.524-0.9958 0.524-0.9958 1.0586-2.0117z" fill="#6A6A6B"/>
<path transform="translate(950,587)" d="m0 0c0 3.8035-1.1379 4.777-3.5 7.6875-0.97453 1.2124-0.97453 1.2124-1.9688 2.4492-0.50531 0.61488-1.0106 1.2298-1.5312 1.8633-1-2-1-2-0.9375-4.375 1.3233-3.7053 3.6179-4.6886 6.9375-6.625l1-1z" fill="#757676"/>
<path transform="translate(1075,532)" d="m0 0c1.4341 3.7882 0.51009 6.0652-0.9375 9.75-0.38027 0.98484-0.76055 1.9697-1.1523 2.9844-0.30035 0.74766-0.6007 1.4953-0.91016 2.2656h-1c0.49658-5.661 1.5451-9.8767 4-15z" fill="#1F1F1F"/>
<path transform="translate(271,1076)" d="m0 0-1 3-3.0625 0.375c-3.8169 0.60585-7.2525 1.4969-10.938 2.625 2.3817-2.7354 4.7067-3.9255 8.0625-5.25 0.87785-0.35578 1.7557-0.71156 2.6602-1.0781 2.2773-0.67188 2.2773-0.67188 4.2773 0.32812z" fill="#646464"/>
<path transform="translate(789,1023)" d="m0 0h1c-0.14069 2.1253-0.28771 4.2503-0.4375 6.375-0.081211 1.1834-0.16242 2.3667-0.24609 3.5859-0.31641 3.0391-0.31641 3.0391-1.3164 5.0391h-2c0.55145-5.2388 1.4292-9.9735 3-15z" fill="#1E1F1F"/>
<path transform="translate(494,974)" d="m0 0 1 4c-6.3636 5-6.3636 5-11 5l10-9z" fill="#4E4E4E"/>
<path transform="translate(1027,421)" d="m0 0 2 1c-3 2-3 2-6 2l-2 5h-6c3.2873-3.8352 7.2515-6.3247 12-8z" fill="#717171"/>
<path transform="translate(807,1041)" d="m0 0h2c-1.45 4.1084-3.3979 7.5034-6 11h-2c1.2519-4.486 2.7939-7.5935 6-11z" fill="#252525"/>
<path transform="translate(375,1040)" d="m0 0c-2.1755 2.1755-3.5597 2.7188-6.4375 3.6875-1.1737 0.40799-1.1737 0.40799-2.3711 0.82422-2.1914 0.48828-2.1914 0.48828-5.1914-0.51172 4.8973-3.1288 8.211-4.1608 14-4z" fill="#1C1B1B"/>
<path transform="translate(753,1028)" d="m0 0c2.6632 2.6632 2.9443 4.6534 3.0977 8.3594-0.011602 0.78891-0.023203 1.5778-0.035156 2.3906-0.0090234 0.79922-0.018047 1.5984-0.027344 2.4219-0.017402 0.90492-0.017402 0.90492-0.035156 1.8281-3.3494-5.0242-3.0983-9.0995-3-15z" fill="#1F1F1F"/>
<path transform="translate(424,952)" d="m0 0h1c0.2425 6.4262-1.2101 9.0042-5 14 0.53852-5.2775 1.7734-9.2565 4-14z" fill="#4C4B4B"/>
<path transform="translate(833,652)" d="m0 0c1.0159 3.0476 1.0043 4.4509 0.625 7.5625-0.13535 1.1776-0.13535 1.1776-0.27344 2.3789-0.35156 2.0586-0.35156 2.0586-1.3516 4.0586h-2c-0.40653-5.4204 0.96006-9.0702 3-14z" fill="#202020"/>
<path transform="translate(1084,396)" d="m0 0c-0.60328 0.25395-1.2066 0.50789-1.8281 0.76953-5.9286 2.5262-5.9286 2.5262-11.172 6.2305l-3-2c1.9088-1.0354 3.8274-2.0529 5.75-3.0625 1.601-0.85271 1.601-0.85271 3.2344-1.7227 3.0416-1.2253 4.0646-1.4683 7.0156-0.21484z" fill="#757676"/>
<path transform="translate(648,1033)" d="m0 0v2c-7.4286 2.1429-7.4286 2.1429-11 3 2.545-5.6354 5.0279-5.1106 11-5z" fill="#414141"/>
<path transform="translate(836,820)" d="m0 0c1.5716 3.1431 0.11706 5.3655-0.9375 8.625-0.38027 1.1885-0.76055 2.377-1.1523 3.6016-0.30035 0.91523-0.6007 1.8305-0.91016 2.7734-1.1725-4.099-1.0708-7.7544-1-12h2l2-3z" fill="#686868"/>
<path transform="translate(906,782)" d="m0 0c-2.1221 0.69641-4.2478 1.3819-6.375 2.0625-1.775 0.57428-1.775 0.57428-3.5859 1.1602-3.0391 0.77734-3.0391 0.77734-5.0391-0.22266l-1-2c2.6376-0.76931 5.285-1.235 8-1.625 0.66-0.095391 1.32-0.19078 2-0.28906 2.1894-0.094078 3.9095 0.28878 6 0.91406z" fill="#5A5A5A"/>
<path transform="translate(979,724)" d="m0 0 2 1c-0.64844 1.8906-0.64844 1.8906-2 4-2.6016 1.0469-2.6016 1.0469-5.625 1.75-1.5043 0.36352-1.5043 0.36352-3.0391 0.73438-0.77086 0.17016-1.5417 0.34031-2.3359 0.51562 2.0595-3.0893 2.8468-3.6426 6.0625-5.125 2.6685-1.1492 2.6685-1.1492 4.9375-2.875z" fill="#606060"/>
<path transform="translate(865,558)" d="m0 0c0 2.8397-0.40267 5.2374-1 8-0.99-0.33-1.98-0.66-3-1l-1 4h-2c1.486-4.5931 3.8501-7.4357 7-11z" fill="#6C6C6C"/>
<path transform="translate(895,524)" d="m0 0c0.99 0.33 1.98 0.66 3 1-3.8219 4.105-7.9834 6.5846-13 9 3.037-3.8179 5.8805-7.2898 10-10z" fill="#505050"/>
<path transform="translate(661,1118)" d="m0 0c0 4.6528-2.5092 6.4977-5.6875 9.75l-2.3125 2.25-2-1 10-11z" fill="#616161"/>
<path transform="translate(419,1037)" d="m0 0h6l2 6-2 2c-3-4.75-3-4.75-3-7l-4 1 1-2z" fill="#5A5A5A"/>
<path transform="translate(768,1020)" d="m0 0 2 1v6c0.99-0.33 1.98-0.66 3-1l-1 9h-1c-0.50637-1.7482-1.0048-3.4986-1.5-5.25l-0.84375-2.9531c-0.65625-2.7969-0.65625-2.7969-0.65625-6.7969z" fill="#CACACA"/>
<path transform="translate(758,984)" d="m0 0c2.1297 2.1297 2.4762 3.0407 3.1875 5.875 0.17918 0.67805 0.35836 1.3561 0.54297 2.0547 0.29924 2.2985-0.036695 3.8758-0.73047 6.0703-2.8005-3.1459-3.3526-5.0671-3.1875-9.25 0.02707-0.89203 0.054141-1.7841 0.082031-2.7031 0.034805-0.67547 0.069609-1.3509 0.10547-2.0469z" fill="#494949"/>
<path transform="translate(1025,705)" d="m0 0c0 4.0535-1.5816 5.8215-4 9-0.99 0.33-1.98 0.66-3 1v2l-2-1c2.97-3.63 5.94-7.26 9-11z" fill="#BDBDBD"/>
<path transform="translate(859,704)" d="m0 0h1c0.6875 3.3125 0.6875 3.3125 1 7-1.25 1.6875-1.25 1.6875-3 3-1.018 1.3196-2.0225 2.6501-3 4 0.63157-5.0526 2.1346-9.2959 4-14z" fill="#686767"/>
<path transform="translate(841,632)" d="m0 0c1.4341 3.7882 0.51009 6.0652-0.9375 9.75-0.38027 0.98484-0.76055 1.9697-1.1523 2.9844-0.30035 0.74766-0.6007 1.4953-0.91016 2.2656-0.9239-3.4423-1.3114-6.4187-1-10l3-2 1-3z" fill="#555556"/>
<path transform="translate(857,569)" d="m0 0 1 2c-1.7815 4.6517-3.5185 6.8198-8 9 1.486-4.5931 3.8501-7.4357 7-11z" fill="#747474"/>
<path transform="translate(949,473)" d="m0 0c0.625 1.875 0.625 1.875 1 4-2.6856 2.6856-5.3762 3.0605-9 4 0.95422-1.1493 1.9135-2.2943 2.875-3.4375 0.53367-0.63809 1.0673-1.2762 1.6172-1.9336 1.5078-1.6289 1.5078-1.6289 3.5078-2.6289z" fill="#4F4F50"/>
<path transform="translate(1015,430)" d="m0 0c-4.1846 4.9231-4.1846 4.9231-8.3125 5.3125-0.88688-0.10312-1.7738-0.20625-2.6875-0.3125 2.89-3.2111 6.5212-7.2394 11-5z" fill="#686868"/>
<path transform="translate(1034,420)" d="m0 0v2c-1.6003 0.84069-3.2054 1.6723-4.8125 2.5-1.34 0.69609-1.34 0.69609-2.707 1.4062-2.4805 1.0938-2.4805 1.0938-5.4805 1.0938 2.0188-3.0282 2.8141-3.6694 5.9375-5.1875 0.68965-0.34418 1.3793-0.68836 2.0898-1.043 1.9727-0.76953 1.9727-0.76953 4.9727-0.76953z" fill="#1F1F1F"/>
<path transform="translate(1065,406)" d="m0 0c-1.4301 0.86647-2.8694 1.7178-4.3125 2.5625-1.2008 0.7135-1.2008 0.7135-2.4258 1.4414-2.2617 0.99609-2.2617 0.99609-5.2617-0.0039062 0.99-0.33 1.98-0.66 3-1v-2c3.5295-1.6667 5.2827-2.1358 9-1z" fill="#201F20"/>
<path transform="translate(773,1026)" d="m0 0c1.3743 3.8176 0.67975 7.0726 0 11-0.99 0.33-1.98 0.66-3 1-0.36923-7.3846-0.36923-7.3846 1.5-10.5l1.5-1.5z" fill="#919191"/>
<path transform="translate(813,956)" d="m0 0h2v11h-3l1-11z" fill="#1C1C1C"/>
<path transform="translate(534,944)" d="m0 0h2c-0.375 2.9375-0.375 2.9375-1 6l-2 1c-0.72159 1.6436-1.3935 3.3105-2 5l-2-3h2l1-6h2v-3z" fill="#3D3D3D"/>
<path transform="translate(869,687)" d="m0 0 2 4c-1.6159 2.0412-3.2856 4.0407-5 6h-2c1.1559-3.9121 2.3553-6.8745 5-10z" fill="#444"/>
<path transform="translate(1075,579)" d="m0 0h1c-0.14231 1.417-0.28901 2.8336-0.4375 4.25-0.081211 0.78891-0.16242 1.5778-0.24609 2.3906-0.29276 2.183-0.73705 4.2367-1.3164 6.3594h-3c0.47656-1.7924 0.95633-3.5839 1.4375-5.375 0.26684-0.99773 0.53367-1.9955 0.80859-3.0234 0.75391-2.6016 0.75391-2.6016 1.7539-4.6016z" fill="#1F1F1F"/>
<path transform="translate(893,551)" d="m0 0c0 3.7795-1.0468 5.7912-3 9-2.1094 0.67969-2.1094 0.67969-4 1 0.97776-1.4801 1.9572-2.9591 2.9375-4.4375 0.54527-0.82371 1.0905-1.6474 1.6523-2.4961 1.4102-2.0664 1.4102-2.0664 2.4102-3.0664z" fill="#AEAFAF"/>
<path transform="translate(914,507)" d="m0 0c-1.3698 3.1612-1.9891 3.9927-5 6h-3c1.0143-2.5359 1.6502-3.7814 4-5.25 2-0.75 2-0.75 4-0.75z" fill="#3F4040"/>
<path transform="translate(839,977)" d="m0 0 2 1c-1.9114 3.536-3.6264 5.7897-7 8l-2-1c2.31-2.64 4.62-5.28 7-8z" fill="#656565"/>
<path transform="translate(855,960)" d="m0 0c1.125 1.75 1.125 1.75 2 4-0.875 2.25-0.875 2.25-2 4h-5v-2l5-2v-4z" fill="#484849"/>
<path transform="translate(738,922)" d="m0 0 2 1c-0.5625 1.9375-0.5625 1.9375-2 4-3.625 0.75-3.625 0.75-7 1 2.2574-2.3352 4.2806-4.1871 7-6z" fill="#4D4D4D"/>
<path transform="translate(765,887)" d="m0 0c1.6091 3.2182 0.83788 5.5886 0 9-2.5625 1.9375-2.5625 1.9375-5 3 1.1419-4.4796 2.4302-8.1452 5-12z" fill="#545454"/>
<path transform="translate(515,892)" d="m0 0c4.5148 0.53115 7.3467 2.3662 11 5-1.7656 0.64844-1.7656 0.64844-4 1-1.9219-0.96094-1.9219-0.96094-3.75-2.375-0.61359-0.46148-1.2272-0.92297-1.8594-1.3984-0.45891-0.40477-0.91781-0.80953-1.3906-1.2266v-1z" fill="#242424"/>
<path transform="translate(858,748)" d="m0 0h1c-0.44529 5.2732-1.0837 10.018-3 15-1.1156-3.3705-0.86844-5.7402-0.125-9.1875 0.18305-0.88043 0.36609-1.7609 0.55469-2.668 0.57031-2.1445 0.57031-2.1445 1.5703-3.1445z" fill="#3F3E3F"/>
<path transform="translate(1055,646)" d="m0 0c0.625 1.875 0.625 1.875 1 4l-2 2c-0.71408 1.9836-1.3862 3.9832-2 6-1.4112-3.2072-0.89414-4.2839 0.375-7.6875 1.625-3.3125 1.625-3.3125 2.625-4.3125z" fill="#202020"/>
<path transform="translate(1079,566)" d="m0 0h1l-1 10c-0.99 0.33-1.98 0.66-3 1 0.30922-1.459 0.62249-2.9172 0.9375-4.375 0.17402-0.81211 0.34805-1.6242 0.52734-2.4609 0.53516-2.1641 0.53516-2.1641 1.5352-4.1641z" fill="#242424"/>
<path transform="translate(938,502)" d="m0 0h2v3c-2.8125 2.75-2.8125 2.75-6 5-0.99-0.33-1.98-0.66-3-1 1.6234-1.7088 3.2932-3.3745 5-5h2v-2z" fill="#242425"/>
<path transform="translate(1089,483)" d="m0 0c1.1172 1.7031 1.1172 1.7031 2 4-0.67969 2.3594-0.67969 2.3594-1.875 4.75-0.3893 0.79922-0.77859 1.5984-1.1797 2.4219-0.31195 0.60328-0.62391 1.2066-0.94531 1.8281-1.1877-3.4294-0.80226-5.3778 0.4375-8.75 0.28746-0.79922 0.57492-1.5984 0.87109-2.4219 0.22816-0.60328 0.45633-1.2066 0.69141-1.8281z" fill="#585858"/>
<path transform="translate(1115,401)" d="m0 0c-4.362 2.447-8.0269 3.5027-13 4 1.2719-2.5438 2.1995-2.6937 4.8125-3.6875 0.68707-0.27199 1.3741-0.54398 2.082-0.82422 2.3992-0.55641 3.7949-0.26193 6.1055 0.51172z" fill="#1B1B1B"/>
<path transform="translate(505,1092)" d="m0 0 10 1v2l-10-1v-2z" fill="#232223"/>
<path transform="translate(793,1063)" d="m0 0 1 3c-1.4045 2.2637-3.1968 4.0209-5 6-1-3-1-3 0-6 2.0625-1.6875 2.0625-1.6875 4-3z" fill="#222"/>
<path transform="translate(782,1001)" d="m0 0c1.4091 2.8181 0.50873 4.1728-0.4375 7.125-0.28746 0.91008-0.57492 1.8202-0.87109 2.7578-0.22816 0.69867-0.45633 1.3973-0.69141 2.1172h-1c-0.15385-8-0.15385-8 1-11l2-1z" fill="#1D1E1E"/>
<path transform="translate(460,999)" d="m0 0 2 1v2c-5.75 3-5.75 3-8 3 1.0145-2.5364 1.6854-3.7935 4-5.3125l2-0.6875z" fill="#3F3F40"/>
<path transform="translate(468,994)" d="m0 0c2 1 2 1 3 3l-7 3-2-2 6-4z" fill="#3F403F"/>
<path transform="translate(748,954)" d="m0 0c4.1299 4.2631 4.6127 7.2876 5 13-3.1047-2.5402-3.9849-5.1737-5-9v-4z" fill="#7A7A7A"/>
<path transform="translate(443,919)" d="m0 0h1c0.3125 2.3125 0.3125 2.3125 0 5-2.5 1.8125-2.5 1.8125-5 3 0-3.9185 1.4503-5.1412 4-8z" fill="#474748"/>
<path transform="translate(940,763)" d="m0 0c0.99 0.33 1.98 0.66 3 1-5.4154 4.0615-5.4154 4.0615-8.375 3.75l-1.625-0.75c4.75-2.875 4.75-2.875 7-4z" fill="#202021"/>
<path transform="translate(862,737)" d="m0 0h3c-0.99 3.3-1.98 6.6-3 10-2-4-2-4-2-6h3l-1-4z" fill="#3B3B3B"/>
<path transform="translate(992,719)" d="m0 0c-2.7708 3.8098-6.6287 4.0684-11 5 6.6316-7.1842 6.6316-7.1842 11-5z" fill="#4B4B4B"/>
<path transform="translate(919,600)" d="m0 0h2c-0.41422 4.8326-2.4641 6.8268-6 10 0.56303-3.9412 1.6792-6.7509 4-10z" fill="#232323"/>
<path transform="translate(937,574)" d="m0 0c0 2.8397-0.40267 5.2374-1 8l-5 1c1.5271-3.436 3.5993-6.1191 6-9z" fill="#606161"/>
<path transform="translate(1107,487)" d="m0 0c1.361 2.7219 0.70366 4.1832 0.0625 7.125-0.19465 0.91008-0.3893 1.8202-0.58984 2.7578-0.15598 0.69867-0.31195 1.3973-0.47266 2.1172h-2c0.85714-8.5714 0.85714-8.5714 3-12z" fill="#B4B3B4"/>
<path transform="translate(1137,376)" d="m0 0h8l1 4-10-2 1-2z" fill="#1E1E1E"/>
<path transform="translate(447,1074)" d="m0 0h2c2.0118 2.3337 3.016 4.0479 4 7-4.6769-1.4769-4.6769-1.4769-6.3125-4.125-0.22688-0.61875-0.45375-1.2375-0.6875-1.875l1-1z" fill="#525252"/>
<path transform="translate(808,1013)" d="m0 0 2 1-1 5c-1.98 0.66-3.96 1.32-6 2 3.875-6.875 3.875-6.875 5-8z" fill="#6E6E6E"/>
<path transform="translate(785,881)" d="m0 0c0.6875 1.625 0.6875 1.625 1 4-1.4375 3.25-1.4375 3.25-3 6-2-3.75-2-3.75-2-6 0.99-0.33 1.98-0.66 3-1l1-3z" fill="#585858"/>
<path transform="translate(833,863)" d="m0 0 13 1v1l-13 1v-3z" fill="#535252"/>
<path transform="translate(1016,688)" d="m0 0c1 2 1 2 0.875 4.5-0.875 2.5-0.875 2.5-3.3125 3.75-0.84562 0.2475-1.6912 0.495-2.5625 0.75l-2 1c1.6675-3.9414 4.2271-6.7893 7-10z" fill="#747474"/>
<path transform="translate(1040,683)" d="m0 0c0 3.999-1.7259 5.802-4 9-1.4309-2.8618-0.59992-4.9338 0-8l4-1z" fill="#646565"/>
<path transform="translate(906,655)" d="m0 0c0 3.7312-1.1803 5.7806-3 9l-2 1c0.50299-4.4011 2.0877-6.712 5-10z" fill="#B2B2B2"/>
<path transform="translate(904,513)" d="m0 0 2 1c-0.75 2.4375-0.75 2.4375-2 5-2 0.75-2 0.75-4 1l-2 1c1.4425-3.3659 3.3326-5.5105 6-8z" fill="#606060"/>
<path transform="translate(1100,501)" d="m0 0h1l-1 9h-3c0.55729-3.3437 1.3517-6.0331 3-9z" fill="#212121"/>
<path transform="translate(1083,398)" d="m0 0c-1.2642 0.69965-2.5367 1.3843-3.8125 2.0625-0.7077 0.38285-1.4154 0.7657-2.1445 1.1602-2.043 0.77734-2.043 0.77734-5.043-0.22266 6.9643-4.4196 6.9643-4.4196 11-3z" fill="#1C1C1C"/>
<path transform="translate(190,1133)" d="m0 0c1 3 1 3 0 6-3.0625 1.6875-3.0625 1.6875-6 3 1.5271-3.436 3.5993-6.1191 6-9z" fill="#636363"/>
<path transform="translate(471,1094)" d="m0 0c2.31 0.33 4.62 0.66 7 1v2l4 2c-3.1961 0-4.4172-0.54672-7.1875-2-0.71543-0.37125-1.4309-0.7425-2.168-1.125-0.5427-0.28875-1.0854-0.5775-1.6445-0.875v-1z" fill="#606060"/>
<path transform="translate(344,1064)" d="m0 0c-3.0062 3.0062-5.8238 2.5959-10 3 3.1338-3.6039 5.4073-4.5309 10-3z" fill="#1D1D1E"/>
<path transform="translate(432,1054)" d="m0 0c2.9593 2.7552 5.0368 5.4663 7 9-1.8125-0.1875-1.8125-0.1875-4-1-2.142-2.907-3-4.3552-3-8z" fill="#222"/>
<path transform="translate(797,1028)" d="m0 0c1.3333 2.6666 0.67102 4.1668 0 7l-4 1c1.75-5.75 1.75-5.75 4-8z" fill="#626162"/>
<path transform="translate(753,910)" d="m0 0 2 1c-0.95117 1.1725-1.9112 2.3379-2.875 3.5-0.53367 0.64969-1.0673 1.2994-1.6172 1.9688-0.49758 0.50531-0.99516 1.0106-1.5078 1.5312h-2c1.4425-3.3659 3.3326-5.5105 6-8z" fill="#1E1F20"/>
<path transform="translate(785,873)" d="m0 0h1c0.28571 8.5714 0.28571 8.5714-2 12h-2l3-12z" fill="#202020"/>
<path transform="translate(811,842)" d="m0 0h1l1 8-4 3c0.875-7.625 0.875-7.625 2-11z" fill="#5E5E5E"/>
<path transform="translate(827,845)" d="m0 0h1c0.25 7.625 0.25 7.625-2 11-1.25-7.625-1.25-7.625 1-11z" fill="#3C3C3C"/>
<path transform="translate(845,784)" d="m0 0h1c-0.43821 4.5574-0.85041 7.5765-4 11 0.75-7.625 0.75-7.625 3-11z" fill="#1E1E1E"/>
<path transform="translate(836,648)" d="m0 0c1.4091 2.8181 0.50873 4.1728-0.4375 7.125-0.28746 0.91008-0.57492 1.8202-0.87109 2.7578-0.22816 0.69867-0.45633 1.3973-0.69141 2.1172h-1c-0.08091-1.6242-0.13915-3.2495-0.1875-4.875-0.034805-0.90492-0.069609-1.8098-0.10547-2.7422 0.09668-0.78633 0.19336-1.5727 0.29297-2.3828l3-2z" fill="#3D3D3E"/>
<path transform="translate(879,541)" d="m0 0 1 4-5 3-1-2 5-5z" fill="#535353"/>
<path transform="translate(1092,525)" d="m0 0h1l-1 9c-0.99 0.33-1.98 0.66-3 1 0.99-3.3 1.98-6.6 3-10z" fill="#202120"/>
<path transform="translate(213,1128)" d="m0 0 2 1-5 6c-0.99-0.33-1.98-0.66-3-1l6-6z" fill="#C7C7C7"/>
<path transform="translate(791,1069)" d="m0 0c0 3.999-1.7259 5.802-4 9-1.4309-2.8618-0.59992-4.9338 0-8h3l1-1z" fill="#656565"/>
<path transform="translate(746,994)" d="m0 0c0.9362 3.1551 1.1057 5.9659 1.0625 9.25-0.0090234 0.89203-0.018047 1.7841-0.027344 2.7031-0.011602 0.67547-0.023203 1.3509-0.035156 2.0469h-1l-2-12h2v-2z" fill="#444"/>
<path transform="translate(854,984)" d="m0 0h2c-1.491 3.7952-3.757 5.6104-7 8 0.25-1.875 0.25-1.875 1-4 2.0625-1.25 2.0625-1.25 4-2v-2z" fill="#232324"/>
<path transform="translate(775,855)" d="m0 0 2 1-2 2c-0.16677 3.5834-0.16677 3.5834 0 7h-2l-1 2c0.11399-1.6258 0.24156-3.2507 0.375-4.875 0.069609-0.90492 0.13922-1.8098 0.21094-2.7422 0.41406-2.3828 0.41406-2.3828 2.4141-4.3828z" fill="#4B4B4C"/>
<path transform="translate(817,822)" d="m0 0c1.1757 3.6741 1.0737 7.1693 1 11h-3c0.14108-1.4588 0.28802-2.917 0.4375-4.375 0.081211-0.81211 0.16242-1.6242 0.24609-2.4609 0.31641-2.1641 0.31641-2.1641 1.3164-4.1641z" fill="#424141"/>
<path transform="translate(850,773)" d="m0 0c1.4091 2.8181 0.50873 4.1728-0.4375 7.125-0.28746 0.91008-0.57492 1.8202-0.87109 2.7578-0.22816 0.69867-0.45633 1.3973-0.69141 2.1172-0.9239-3.4423-1.3114-6.4187-1-10l3-2z" fill="#4B4B4C"/>
<path transform="translate(984,722)" d="m0 0c0.99 0.33 1.98 0.66 3 1-5.1429 4.4286-5.1429 4.4286-9 5l6-6z" fill="#202021"/>
<path transform="translate(870,719)" d="m0 0h3l-1 7h-2c-1.125-4.75-1.125-4.75 0-7z" fill="#555"/>
<path transform="translate(950,567)" d="m0 0c-3 2-3 2-5 2-0.28875 0.63938-0.5775 1.2788-0.875 1.9375-1.125 2.0625-1.125 2.0625-3.125 3.0625 0.97913-5.679 3.265-7.465 9-7z" fill="#1D1D1D"/>
<path transform="translate(1067,554)" d="m0 0c0.82811 3.3124 1.0928 5.6598 1 9l-4 1c0.99-3.3 1.98-6.6 3-10z" fill="#373737"/>
<path transform="translate(875,547)" d="m0 0h2c-1.2694 3.914-2.5117 5.7907-6 8 0.59687-3.3425 1.736-5.4644 4-8z" fill="#222"/>
<path transform="translate(893,529)" d="m0 0c-0.8125 1.9375-0.8125 1.9375-2 4-0.99 0.33-1.98 0.66-3 1l-1 3-1-3c4.75-5 4.75-5 7-5z" fill="#212121"/>
<path transform="translate(1080,519)" d="m0 0c1.392 4.1759-0.17677 6.1347-2 10h-1c-0.36923-6.5231-0.36923-6.5231 1.5-8.9375l1.5-1.0625z" fill="#222"/>
<path transform="translate(1061,422)" d="m0 0c-1 3-1 3-2.8125 4.25-2.5269 0.86638-3.7097 0.63492-6.1875-0.25 5.625-4 5.625-4 9-4z" fill="#222"/>
<path transform="translate(1095,406)" d="m0 0c2.97 0.495 2.97 0.495 6 1-2.3951 2.8993-4.3125 3.5017-8 4l2-5z" fill="#5B5C5C"/>
<path transform="translate(648,1052)" d="m0 0 8 2v3c-5.75-1.625-5.75-1.625-8-5z" fill="#4F4F4F"/>
<path transform="translate(389,1049)" d="m0 0-1 3h-8c2.8476-2.8476 5.0362-3 9-3z" fill="#3A3A3A"/>
<path transform="translate(518,969)" d="m0 0 1 3-5 5c0.49832-3.6875 1.1007-5.6049 4-8z" fill="#323233"/>
<path transform="translate(515,950)" d="m0 0h3c-0.75 2.4375-0.75 2.4375-2 5-2.125 0.8125-2.125 0.8125-4 1 1.875-4.875 1.875-4.875 3-6z" fill="#4E4F4F"/>
<path transform="translate(820,819)" d="m0 0c0.95466 2.1697 1.144 3.5633 0.39844 5.8242-0.75714 1.7443-1.5745 3.4621-2.3984 5.1758-0.95466-2.1697-1.144-3.5633-0.39844-5.8242 0.75714-1.7443 1.5745-3.4621 2.3984-5.1758z" fill="#1D1D1D"/>
<path transform="translate(820,811)" d="m0 0c0.77322 2.9824 1.412 5.9758 2 9h-2l-2 2c0.875-7.625 0.875-7.625 2-11z" fill="#4F4F4F"/>
<path transform="translate(837,639)" d="m0 0c1.1019 4.4077 0.58707 5.8923-1 10h-2c0.99-3.3 1.98-6.6 3-10z" fill="#1E1E1E"/>
<path transform="translate(845,620)" d="m0 0h1c-0.58594 6.1523-0.58594 6.1523-1 8l-2 1c-0.125-3.375-0.125-3.375 0-7l2-2z" fill="#313131"/>
<path transform="translate(852,606)" d="m0 0c1 3 1 3-0.3125 5.6875-0.55688 0.76312-1.1138 1.5262-1.6875 2.3125h-2c1.75-5.75 1.75-5.75 4-8z" fill="#222323"/>
<path transform="translate(916,523)" d="m0 0 1 3-6 5c0.54227-3.7959 2.2013-5.4721 5-8z" fill="#222"/>
<path transform="translate(1017,428)" d="m0 0c0.99 0.33 1.98 0.66 3 1-2.8125 2.0625-2.8125 2.0625-6 4-0.99-0.33-1.98-0.66-3-1 2.8125-2.0625 2.8125-2.0625 6-4z" fill="#1D1D1E"/>
<path transform="translate(790,1030)" d="m0 0h1v5l2 1-4 3 1-9z" fill="#B6B6B6"/>
<path transform="translate(475,989)" d="m0 0 2 1v2c-2.5 1.625-2.5 1.625-5 3l-2-2 5-4z" fill="#3F3E3F"/>
<path transform="translate(501,968)" d="m0 0 1 4-7 2 6-6z" fill="#454545"/>
<path transform="translate(734,966)" d="m0 0c3.0062 3.0062 2.5959 5.8238 3 10-1.5-1.0625-1.5-1.0625-3-3-0.1875-3.6875-0.1875-3.6875 0-7z" fill="#B6B5B5"/>
<path transform="translate(473,894)" d="m0 0v3c-5.625 2-5.625 2-9 2 2.5448-2.7992 5.0763-5 9-5z" fill="#585858"/>
<path transform="translate(970,731)" d="m0 0c0.99 0.33 1.98 0.66 3 1-2.3125 2.0625-2.3125 2.0625-5 4-0.99-0.33-1.98-0.66-3-1 2.3125-2.0625 2.3125-2.0625 5-4z" fill="#202021"/>
<path transform="translate(856,716)" d="m0 0 2 1-2 5h-3l1-4h2v-2z" fill="#323233"/>
<path transform="translate(1e3 709)" d="m0 0 1 2-2-1 1-1zm-3 2h2c-1.3698 3.1612-1.9891 3.9927-5 6 0.57345-2.8672 0.86145-3.8615 3-6z" fill="#212121"/>
<path transform="translate(906,619)" d="m0 0c1 2 1 2 1 6l-5 1c1.2038-2.4936 2.4543-4.6814 4-7z" fill="#696969"/>
<path transform="translate(830,616)" d="m0 0c1.2468 4.987 1.2468 4.987 0 8-0.99 0.33-1.98 0.66-3 1l3-9z" fill="#3C3C3C"/>
<path transform="translate(933,606)" d="m0 0h1c0.20086 3.716 0.15194 4.7721-2 8-0.99-0.33-1.98-0.66-3-1l4-7z" fill="#232324"/>
<path transform="translate(926,588)" d="m0 0 1 4c-0.99 0.33-1.98 0.66-3 1-1.2088 2.0002-1.2088 2.0002-2 4 0-3.999 1.7259-5.802 4-9z" fill="#807F80"/>
<path transform="translate(932,582)" d="m0 0c0.99 0.33 1.98 0.66 3 1l-5 6-1-3c1.4375-2.1875 1.4375-2.1875 3-4z" fill="#212122"/>
<path transform="translate(894,547)" d="m0 0 1 3-6 5c1.1858-3.375 2.2757-5.6472 5-8z" fill="#222122"/>
<path transform="translate(1133,413)" d="m0 0c0.99 0.33 1.98 0.66 3 1l-2 7h-1c-1.125-5.75-1.125-5.75 0-8z" fill="#505050"/>
<path transform="translate(1144,396)" d="m0 0c0 3.6103-0.96093 6.5581-2 10h-2c0.48828-6.0547 0.48828-6.0547 1-8l3-2z" fill="#686969"/>
</svg>
